<?xml version="1.0" encoding="UTF-8"?>
<svg xmlns="http://www.w3.org/2000/svg" xmlns:xlink="http://www.w3.org/1999/xlink" width="32px" height="px" viewBox="0 0 32 32" version="1.1">
<g id="surface1">
<path style=" stroke:none;fill-rule:evenodd;fill:rgb(0%,59.215689%,61.176473%);fill-opacity:1;" d="M 0.0742188 16.625 L 0.0742188 14.226562 C 0.125 14.199219 0.125 14.148438 0.125 14.101562 C 0.875 10.824219 2.925781 8.851562 6.175781 8.074219 C 6.449219 8 6.75 8.023438 7.023438 7.925781 L 8.625 7.925781 C 8.648438 7.976562 8.726562 7.949219 8.773438 7.949219 C 10.375 8.125 11.824219 8.699219 13.101562 9.699219 C 14.199219 10.523438 15.050781 11.574219 15.824219 12.699219 C 15.925781 12.851562 15.976562 12.851562 16.074219 12.699219 C 16.523438 12.050781 17 11.425781 17.550781 10.851562 C 18.875 9.425781 20.476562 8.425781 22.425781 8.074219 C 22.699219 8 23.023438 8.023438 23.300781 7.925781 L 24.851562 7.925781 C 24.875 7.976562 24.925781 7.949219 24.976562 7.949219 C 25.449219 8 25.898438 8.101562 26.351562 8.226562 C 29.699219 9.199219 32.074219 12.273438 31.875 15.75 C 31.726562 18.675781 30.25 20.773438 27.675781 22.101562 C 26.398438 22.800781 25 22.976562 23.550781 22.949219 C 21.648438 22.925781 20 22.273438 18.574219 21.023438 C 17.574219 20.148438 16.800781 19.101562 16.074219 18 C 15.976562 17.851562 15.925781 17.875 15.824219 18.023438 C 15.375 18.699219 14.898438 19.375 14.351562 20.023438 C 13.375 21.125 12.25 22.023438 10.851562 22.5 C 9.125 23.101562 7.375 23.125 5.625 22.648438 C 3.101562 21.925781 1.375 20.324219 0.425781 17.875 C 0.273438 17.476562 0.199219 17.023438 0.0742188 16.625 Z M 8.023438 20.300781 C 9.449219 20.351562 10.675781 19.875 11.726562 18.898438 C 12.800781 17.898438 13.574219 16.648438 14.351562 15.425781 C 14.375 15.351562 14.375 15.300781 14.324219 15.226562 C 13.675781 14.199219 13 13.175781 12.101562 12.324219 C 10.375 10.675781 8.351562 10.125 6.074219 10.851562 C 4.199219 11.476562 3 12.800781 2.726562 14.800781 C 2.449219 16.675781 3.175781 18.175781 4.675781 19.300781 C 5.675781 20.023438 6.800781 20.324219 8.023438 20.300781 Z M 23.875 20.300781 C 24.425781 20.300781 24.976562 20.273438 25.5 20.125 C 27.476562 19.523438 28.773438 18.300781 29.148438 16.25 C 29.523438 14.226562 28.75 12.601562 27.050781 11.449219 C 25.175781 10.148438 22.449219 10.273438 20.550781 11.699219 C 19.273438 12.648438 18.425781 13.925781 17.574219 15.25 C 17.523438 15.324219 17.550781 15.375 17.574219 15.449219 C 18.25 16.523438 18.925781 17.601562 19.800781 18.523438 C 20.898438 19.699219 22.226562 20.375 23.875 20.300781 Z M 23.875 20.300781 "/>
<path style=" stroke:none;fill-rule:evenodd;fill:rgb(0%,59.215689%,61.176473%);fill-opacity:1;" d="M 8 14.625 C 8.800781 14.625 9.625 14.648438 10.425781 14.625 C 10.625 14.625 10.648438 14.675781 10.648438 14.875 C 10.625 15.101562 10.625 15.324219 10.648438 15.550781 C 10.675781 15.75 10.625 15.800781 10.398438 15.800781 L 7.199219 15.800781 C 6.648438 15.800781 6.101562 15.773438 5.550781 15.800781 C 5.375 15.800781 5.324219 15.75 5.324219 15.550781 C 5.351562 15.324219 5.351562 15.101562 5.324219 14.851562 C 5.324219 14.675781 5.375 14.625 5.550781 14.625 C 6.351562 14.648438 7.175781 14.625 8 14.625 Z M 23.75 13.023438 C 23.949219 13.023438 24.148438 13.050781 24.324219 13.023438 C 24.449219 13.023438 24.5 13.074219 24.5 13.199219 C 24.476562 13.550781 24.5 13.898438 24.476562 14.25 C 24.476562 14.425781 24.523438 14.476562 24.699219 14.476562 C 25.023438 14.449219 25.375 14.476562 25.726562 14.449219 C 25.875 14.449219 25.925781 14.476562 25.925781 14.648438 L 25.925781 15.800781 C 25.925781 15.925781 25.875 15.976562 25.75 15.976562 C 25.398438 15.949219 25.050781 15.976562 24.675781 15.949219 C 24.523438 15.949219 24.476562 16 24.476562 16.148438 C 24.5 16.5 24.476562 16.851562 24.5 17.199219 C 24.5 17.351562 24.449219 17.425781 24.300781 17.425781 C 23.925781 17.398438 23.550781 17.398438 23.175781 17.425781 C 23.023438 17.425781 22.976562 17.375 22.976562 17.226562 C 23 16.851562 22.976562 16.5 23 16.125 C 23 16 22.949219 15.949219 22.824219 15.949219 C 22.476562 15.976562 22.125 15.949219 21.773438 15.976562 C 21.574219 15.976562 21.550781 15.898438 21.550781 15.75 C 21.550781 15.398438 21.574219 15.050781 21.550781 14.699219 C 21.523438 14.5 21.625 14.449219 21.800781 14.449219 C 22.148438 14.476562 22.476562 14.449219 22.824219 14.476562 C 22.949219 14.476562 23 14.425781 23 14.300781 C 22.976562 13.949219 23 13.574219 22.976562 13.226562 C 22.976562 13.074219 23.023438 13.023438 23.175781 13.023438 C 23.375 13.050781 23.550781 13.023438 23.75 13.023438 Z M 31.214844 6.121094 C 31.179688 6.167969 31.167969 6.183594 31.15625 6.203125 C 31.097656 6.292969 31.144531 6.476562 30.992188 6.472656 C 30.855469 6.472656 30.890625 6.304688 30.84375 6.210938 C 30.832031 6.1875 30.816406 6.164062 30.773438 6.097656 C 30.773438 6.222656 30.777344 6.292969 30.773438 6.367188 C 30.773438 6.414062 30.78125 6.476562 30.703125 6.480469 C 30.628906 6.484375 30.632812 6.421875 30.628906 6.371094 C 30.628906 6.203125 30.628906 6.035156 30.628906 5.863281 C 30.628906 5.808594 30.621094 5.742188 30.710938 5.738281 C 30.777344 5.738281 30.835938 5.734375 30.867188 5.820312 C 30.902344 5.929688 30.914062 6.050781 30.996094 6.152344 C 31.078125 6.054688 31.089844 5.9375 31.121094 5.828125 C 31.144531 5.742188 31.199219 5.738281 31.269531 5.738281 C 31.359375 5.738281 31.355469 5.800781 31.355469 5.859375 C 31.355469 6.03125 31.355469 6.199219 31.355469 6.367188 C 31.351562 6.414062 31.359375 6.480469 31.285156 6.480469 C 31.207031 6.480469 31.214844 6.421875 31.214844 6.371094 C 31.210938 6.296875 31.214844 6.226562 31.214844 6.121094 Z M 30.285156 5.734375 C 30.308594 5.734375 30.328125 5.734375 30.351562 5.734375 C 30.433594 5.753906 30.558594 5.691406 30.585938 5.785156 C 30.621094 5.921875 30.476562 5.855469 30.417969 5.882812 C 30.355469 5.910156 30.367188 5.964844 30.367188 6.015625 C 30.363281 6.132812 30.367188 6.25 30.367188 6.367188 C 30.367188 6.429688 30.351562 6.484375 30.269531 6.480469 C 30.191406 6.480469 30.195312 6.421875 30.195312 6.371094 C 30.195312 6.261719 30.195312 6.152344 30.195312 6.042969 C 30.199219 5.949219 30.199219 5.859375 30.066406 5.875 C 30.015625 5.878906 29.976562 5.863281 29.976562 5.804688 C 29.976562 5.722656 30.039062 5.738281 30.085938 5.738281 C 30.152344 5.734375 30.21875 5.734375 30.285156 5.734375 Z M 30.285156 5.734375 "/>
</g>
</svg>
