<?xml version="1.0" encoding="UTF-8"?>
<svg xmlns="http://www.w3.org/2000/svg" xmlns:xlink="http://www.w3.org/1999/xlink" width="32px" height="32px" viewBox="0 0 32 35" version="1.1">
<g id="surface1">
<path style=" stroke:none;fill-rule:nonzero;fill:rgb(0%,34.901962%,61.176473%);fill-opacity:1;" d="M 31.59375 26.277344 C 31.84375 25.851562 32 25.375 32 24.949219 L 32 10.085938 C 32 9.660156 31.84375 9.183594 31.59375 8.757812 L 16 17.519531 Z M 31.59375 26.277344 "/>
<path style=" stroke:none;fill-rule:nonzero;fill:rgb(0%,26.666668%,50.980395%);fill-opacity:1;" d="M 17.386719 34.714844 L 30.613281 27.285156 C 30.996094 27.070312 31.34375 26.699219 31.59375 26.277344 L 16 17.519531 L 0.40625 26.277344 C 0.65625 26.699219 1.003906 27.070312 1.386719 27.285156 L 14.613281 34.714844 C 15.375 35.140625 16.625 35.140625 17.386719 34.714844 Z M 17.386719 34.714844 "/>
<path style=" stroke:none;fill-rule:nonzero;fill:rgb(39.607844%,60.392159%,82.352942%);fill-opacity:1;" d="M 31.59375 8.757812 C 31.34375 8.335938 30.996094 7.964844 30.613281 7.75 L 17.386719 0.320312 C 16.625 -0.105469 15.375 -0.105469 14.613281 0.320312 L 1.386719 7.75 C 0.625 8.179688 0 9.230469 0 10.085938 L 0 24.949219 C 0 25.375 0.15625 25.851562 0.40625 26.277344 L 16 17.519531 Z M 31.59375 8.757812 "/>
<path style=" stroke:none;fill-rule:nonzero;fill:rgb(100%,100%,100%);fill-opacity:1;" d="M 16 27.894531 C 10.117188 27.894531 5.332031 23.238281 5.332031 17.519531 C 5.332031 11.796875 10.117188 7.140625 16 7.140625 C 19.796875 7.140625 23.335938 9.128906 25.238281 12.324219 L 20.621094 14.925781 C 19.667969 13.324219 17.898438 12.328125 16 12.328125 C 13.058594 12.328125 10.667969 14.65625 10.667969 17.519531 C 10.667969 20.378906 13.058594 22.707031 16 22.707031 C 17.898438 22.707031 19.667969 21.710938 20.621094 20.109375 L 25.238281 22.710938 C 23.335938 25.910156 19.796875 27.894531 16 27.894531 Z M 16 27.894531 "/>
<path style=" stroke:none;fill-rule:nonzero;fill:rgb(100%,100%,100%);fill-opacity:1;" d="M 26.667969 16.941406 L 25.480469 16.941406 L 25.480469 15.789062 L 24.296875 15.789062 L 24.296875 16.941406 L 23.109375 16.941406 L 23.109375 18.09375 L 24.296875 18.09375 L 24.296875 19.246094 L 25.480469 19.246094 L 25.480469 18.09375 L 26.667969 18.09375 Z M 26.667969 16.941406 "/>
<path style=" stroke:none;fill-rule:nonzero;fill:rgb(100%,100%,100%);fill-opacity:1;" d="M 31.109375 16.941406 L 29.925781 16.941406 L 29.925781 15.789062 L 28.742188 15.789062 L 28.742188 16.941406 L 27.554688 16.941406 L 27.554688 18.09375 L 28.742188 18.09375 L 28.742188 19.246094 L 29.925781 19.246094 L 29.925781 18.09375 L 31.109375 18.09375 Z M 31.109375 16.941406 "/>
</g>
</svg>
