<?xml version="1.0" encoding="UTF-8"?>
<svg xmlns="http://www.w3.org/2000/svg" xmlns:xlink="http://www.w3.org/1999/xlink" width="32px" height="px" viewBox="0 0 32 32" version="1.1">
<g id="surface1">
<path style=" stroke:none;fill-rule:nonzero;fill:rgb(0%,34.901962%,61.176473%);fill-opacity:1;" d="M 30.257812 24.023438 C 30.484375 23.636719 30.628906 23.199219 30.628906 22.8125 L 30.628906 9.222656 C 30.628906 8.832031 30.484375 8.394531 30.257812 8.007812 L 16 16.019531 Z M 30.257812 24.023438 "/>
<path style=" stroke:none;fill-rule:nonzero;fill:rgb(0%,26.666668%,50.980395%);fill-opacity:1;" d="M 17.269531 31.738281 L 29.359375 24.945312 C 29.710938 24.75 30.027344 24.410156 30.257812 24.023438 L 16 16.019531 L 1.742188 24.023438 C 1.972656 24.410156 2.289062 24.75 2.640625 24.945312 L 14.730469 31.738281 C 15.429688 32.128906 16.570312 32.128906 17.269531 31.738281 Z M 17.269531 31.738281 "/>
<path style=" stroke:none;fill-rule:nonzero;fill:rgb(39.607844%,60.392159%,82.352942%);fill-opacity:1;" d="M 30.257812 8.007812 C 30.027344 7.621094 29.710938 7.28125 29.359375 7.085938 L 17.269531 0.292969 C 16.570312 -0.0976562 15.429688 -0.0976562 14.730469 0.292969 L 2.640625 7.085938 C 1.941406 7.480469 1.371094 8.4375 1.371094 9.222656 L 1.371094 22.8125 C 1.371094 23.199219 1.515625 23.636719 1.742188 24.023438 L 16 16.019531 Z M 30.257812 8.007812 "/>
<path style=" stroke:none;fill-rule:nonzero;fill:rgb(100%,100%,100%);fill-opacity:1;" d="M 16 25.503906 C 10.621094 25.503906 6.246094 21.246094 6.246094 16.019531 C 6.246094 10.785156 10.621094 6.527344 16 6.527344 C 19.472656 6.527344 22.707031 8.347656 24.445312 11.269531 L 20.226562 13.644531 C 19.355469 12.183594 17.734375 11.269531 16 11.269531 C 13.3125 11.269531 11.125 13.398438 11.125 16.019531 C 11.125 18.632812 13.3125 20.761719 16 20.761719 C 17.734375 20.761719 19.355469 19.851562 20.226562 18.386719 L 24.445312 20.765625 C 22.707031 23.6875 19.472656 25.503906 16 25.503906 Z M 16 25.503906 "/>
<path style=" stroke:none;fill-rule:nonzero;fill:rgb(100%,100%,100%);fill-opacity:1;" d="M 25.753906 15.488281 L 24.667969 15.488281 L 24.667969 14.4375 L 23.585938 14.4375 L 23.585938 15.488281 L 22.5 15.488281 L 22.5 16.542969 L 23.585938 16.542969 L 23.585938 17.597656 L 24.667969 17.597656 L 24.667969 16.542969 L 25.753906 16.542969 Z M 25.753906 15.488281 "/>
<path style=" stroke:none;fill-rule:nonzero;fill:rgb(100%,100%,100%);fill-opacity:1;" d="M 29.8125 15.488281 L 28.730469 15.488281 L 28.730469 14.4375 L 27.648438 14.4375 L 27.648438 15.488281 L 26.5625 15.488281 L 26.5625 16.542969 L 27.648438 16.542969 L 27.648438 17.597656 L 28.730469 17.597656 L 28.730469 16.542969 L 29.8125 16.542969 Z M 29.8125 15.488281 "/>
</g>
</svg>
