<?xml version="1.0" encoding="UTF-8"?>
<svg xmlns="http://www.w3.org/2000/svg" xmlns:xlink="http://www.w3.org/1999/xlink" width="32px" height="32px" viewBox="0 0 32 36" version="1.1">
<g id="surface1">
<path style=" stroke:none;fill-rule:nonzero;fill:rgb(63.137257%,47.450981%,86.274511%);fill-opacity:1;" d="M 31.945312 10.554688 C 31.945312 9.953125 31.816406 9.417969 31.554688 8.960938 C 31.300781 8.511719 30.914062 8.132812 30.398438 7.835938 C 26.148438 5.382812 21.890625 2.9375 17.636719 0.484375 C 16.492188 -0.179688 15.378906 -0.15625 14.242188 0.515625 C 12.550781 1.515625 4.074219 6.371094 1.546875 7.835938 C 0.507812 8.4375 0 9.359375 0 10.554688 C 0 15.488281 0 20.417969 0 25.351562 C 0 25.941406 0.125 26.464844 0.375 26.914062 C 0.628906 27.378906 1.019531 27.765625 1.546875 28.074219 C 4.074219 29.535156 12.550781 34.390625 14.242188 35.390625 C 15.378906 36.0625 16.492188 36.085938 17.636719 35.421875 C 21.890625 32.96875 26.148438 30.523438 30.402344 28.070312 C 30.929688 27.765625 31.316406 27.378906 31.574219 26.914062 C 31.824219 26.464844 31.949219 25.941406 31.949219 25.351562 C 31.949219 25.351562 31.949219 15.488281 31.945312 10.554688 "/>
<path style=" stroke:none;fill-rule:nonzero;fill:rgb(15.686275%,0%,40.784314%);fill-opacity:1;" d="M 16.023438 17.90625 L 0.375 26.914062 C 0.628906 27.378906 1.019531 27.765625 1.546875 28.074219 C 4.074219 29.535156 12.550781 34.390625 14.242188 35.390625 C 15.378906 36.0625 16.492188 36.085938 17.636719 35.421875 C 21.890625 32.96875 26.148438 30.523438 30.402344 28.070312 C 30.929688 27.765625 31.316406 27.378906 31.574219 26.914062 L 16.023438 17.90625 "/>
<path style=" stroke:none;fill-rule:nonzero;fill:rgb(22.352941%,0%,56.862748%);fill-opacity:1;" d="M 31.945312 10.554688 C 31.945312 9.953125 31.816406 9.417969 31.554688 8.960938 L 16.023438 17.90625 L 31.574219 26.914062 C 31.824219 26.464844 31.949219 25.941406 31.949219 25.351562 C 31.949219 25.351562 31.949219 15.488281 31.945312 10.554688 "/>
<path style=" stroke:none;fill-rule:nonzero;fill:rgb(100%,100%,100%);fill-opacity:1;" d="M 25.238281 14.535156 L 25.238281 16.222656 L 26.921875 16.222656 L 26.921875 14.535156 L 27.761719 14.535156 L 27.761719 16.222656 L 29.445312 16.222656 L 29.445312 17.0625 L 27.761719 17.0625 L 27.761719 18.746094 L 29.445312 18.746094 L 29.445312 19.589844 L 27.761719 19.589844 L 27.761719 21.273438 L 26.921875 21.273438 L 26.921875 19.589844 L 25.238281 19.589844 L 25.238281 21.273438 L 24.394531 21.273438 L 24.394531 19.589844 L 22.710938 19.589844 L 22.710938 18.746094 L 24.394531 18.746094 L 24.394531 17.0625 L 22.710938 17.0625 L 22.710938 16.222656 L 24.394531 16.222656 L 24.394531 14.535156 Z M 26.921875 17.0625 L 25.238281 17.0625 L 25.238281 18.746094 L 26.921875 18.746094 Z M 26.921875 17.0625 "/>
<path style=" stroke:none;fill-rule:nonzero;fill:rgb(100%,100%,100%);fill-opacity:1;" d="M 16.058594 6.078125 C 20.449219 6.078125 24.285156 8.464844 26.339844 12.011719 L 26.320312 11.976562 L 21.152344 14.953125 C 20.132812 13.226562 18.265625 12.0625 16.125 12.039062 L 16.058594 12.039062 C 12.792969 12.039062 10.144531 14.6875 10.144531 17.953125 C 10.144531 19.019531 10.429688 20.023438 10.921875 20.886719 C 11.941406 22.667969 13.859375 23.867188 16.058594 23.867188 C 18.269531 23.867188 20.195312 22.652344 21.210938 20.851562 L 21.183594 20.894531 L 26.347656 23.886719 C 24.3125 27.402344 20.53125 29.78125 16.1875 29.828125 L 16.058594 29.828125 C 11.648438 29.828125 7.804688 27.429688 5.753906 23.863281 C 4.753906 22.121094 4.183594 20.105469 4.183594 17.953125 C 4.183594 11.394531 9.5 6.078125 16.058594 6.078125 Z M 16.058594 6.078125 "/>
</g>
</svg>
