<?xml version="1.0" encoding="UTF-8"?>
<svg xmlns="http://www.w3.org/2000/svg" xmlns:xlink="http://www.w3.org/1999/xlink" width="32px" height="px" viewBox="0 0 32 32" version="1.1">
<g id="surface1">
<path style=" stroke:none;fill-rule:nonzero;fill:rgb(63.137257%,47.450981%,86.274511%);fill-opacity:1;" d="M 30.171875 9.382812 C 30.171875 8.847656 30.058594 8.371094 29.828125 7.964844 C 29.601562 7.566406 29.257812 7.230469 28.796875 6.964844 C 25.019531 4.785156 21.234375 2.609375 17.453125 0.429688 C 16.4375 -0.160156 15.449219 -0.140625 14.4375 0.457031 C 12.933594 1.347656 5.398438 5.664062 3.152344 6.964844 C 2.230469 7.5 1.777344 8.320312 1.777344 9.382812 C 1.777344 13.765625 1.777344 18.148438 1.777344 22.535156 C 1.777344 23.058594 1.890625 23.523438 2.109375 23.921875 C 2.335938 24.335938 2.683594 24.679688 3.152344 24.953125 C 5.398438 26.253906 12.933594 30.570312 14.4375 31.457031 C 15.449219 32.054688 16.4375 32.078125 17.453125 31.484375 C 21.234375 29.304688 25.019531 27.132812 28.800781 24.953125 C 29.269531 24.679688 29.613281 24.335938 29.84375 23.921875 C 30.066406 23.523438 30.175781 23.058594 30.175781 22.535156 C 30.175781 22.535156 30.175781 13.765625 30.171875 9.382812 "/>
<path style=" stroke:none;fill-rule:nonzero;fill:rgb(15.686275%,0%,40.784314%);fill-opacity:1;" d="M 16.019531 15.917969 L 2.109375 23.921875 C 2.335938 24.335938 2.683594 24.679688 3.152344 24.953125 C 5.398438 26.253906 12.933594 30.570312 14.4375 31.457031 C 15.449219 32.054688 16.4375 32.078125 17.453125 31.484375 C 21.234375 29.304688 25.019531 27.132812 28.800781 24.953125 C 29.269531 24.679688 29.613281 24.335938 29.84375 23.921875 L 16.019531 15.917969 "/>
<path style=" stroke:none;fill-rule:nonzero;fill:rgb(22.352941%,0%,56.862748%);fill-opacity:1;" d="M 30.171875 9.382812 C 30.171875 8.847656 30.058594 8.371094 29.828125 7.964844 L 16.019531 15.917969 L 29.84375 23.921875 C 30.066406 23.523438 30.175781 23.058594 30.175781 22.535156 C 30.175781 22.535156 30.175781 13.765625 30.171875 9.382812 "/>
<path style=" stroke:none;fill-rule:nonzero;fill:rgb(100%,100%,100%);fill-opacity:1;" d="M 24.210938 12.921875 L 24.210938 14.421875 L 25.707031 14.421875 L 25.707031 12.921875 L 26.453125 12.921875 L 26.453125 14.421875 L 27.953125 14.421875 L 27.953125 15.167969 L 26.453125 15.167969 L 26.453125 16.664062 L 27.953125 16.664062 L 27.953125 17.414062 L 26.453125 17.414062 L 26.453125 18.910156 L 25.707031 18.910156 L 25.707031 17.414062 L 24.210938 17.414062 L 24.210938 18.910156 L 23.460938 18.910156 L 23.460938 17.414062 L 21.964844 17.414062 L 21.964844 16.664062 L 23.460938 16.664062 L 23.460938 15.167969 L 21.964844 15.167969 L 21.964844 14.421875 L 23.460938 14.421875 L 23.460938 12.921875 Z M 25.707031 15.167969 L 24.210938 15.167969 L 24.210938 16.664062 L 25.707031 16.664062 Z M 25.707031 15.167969 "/>
<path style=" stroke:none;fill-rule:nonzero;fill:rgb(100%,100%,100%);fill-opacity:1;" d="M 16.050781 5.402344 C 19.953125 5.402344 23.363281 7.523438 25.191406 10.675781 L 25.171875 10.644531 L 20.578125 13.292969 C 19.671875 11.757812 18.015625 10.722656 16.109375 10.703125 L 16.050781 10.703125 C 13.148438 10.703125 10.796875 13.054688 10.796875 15.957031 C 10.796875 16.90625 11.046875 17.796875 11.484375 18.566406 C 12.390625 20.148438 14.097656 21.214844 16.050781 21.214844 C 18.015625 21.214844 19.730469 20.136719 20.632812 18.535156 L 20.609375 18.574219 L 25.199219 21.234375 C 23.390625 24.359375 20.027344 26.472656 16.167969 26.515625 L 16.050781 26.515625 C 12.132812 26.515625 8.714844 24.382812 6.890625 21.210938 C 6.003906 19.664062 5.496094 17.871094 5.496094 15.957031 C 5.496094 10.128906 10.222656 5.402344 16.050781 5.402344 Z M 16.050781 5.402344 "/>
</g>
</svg>
