<?xml version="1.0" encoding="UTF-8"?>
<svg xmlns="http://www.w3.org/2000/svg" xmlns:xlink="http://www.w3.org/1999/xlink" width="32px" height="32px" viewBox="0 0 32 21" version="1.1">
<g id="surface1">
<path style=" stroke:none;fill-rule:nonzero;fill:rgb(100%,100%,100%);fill-opacity:1;" d="M 19.496094 21.027344 C 12.996094 21.027344 6.511719 21.027344 0.0273438 21.027344 C 0.0273438 14.027344 0.0273438 7.027344 0.0273438 0.0273438 C 10.695312 0.0273438 21.363281 0.0273438 32.027344 0.0273438 C 32.027344 7.027344 32.027344 14.027344 32.027344 21.027344 C 27.855469 21.027344 23.683594 21.027344 19.496094 21.027344 M 6.304688 10.261719 C 6.84375 10.316406 7.378906 10.371094 7.957031 10.429688 C 7.839844 10.054688 7.738281 9.726562 7.644531 9.421875 C 7.175781 9.382812 6.730469 9.347656 6.28125 9.285156 C 6.28125 8.71875 6.28125 8.152344 6.28125 7.574219 C 6.839844 7.574219 7.378906 7.574219 7.921875 7.574219 C 7.921875 7.261719 7.921875 6.960938 7.921875 6.664062 C 7.019531 6.664062 6.128906 6.664062 5.226562 6.664062 C 5.226562 7.476562 5.226562 8.28125 5.203125 9.085938 C 4.832031 8.957031 4.449219 8.847656 4.089844 8.691406 C 3.378906 8.378906 2.734375 7.972656 2.210938 7.394531 C 1.90625 7.054688 1.65625 6.6875 1.503906 6.261719 C 1.445312 6.085938 1.402344 5.90625 1.351562 5.726562 C 1.335938 5.980469 1.320312 6.234375 1.339844 6.484375 C 1.363281 6.851562 1.488281 7.195312 1.664062 7.515625 C 1.921875 7.992188 2.28125 8.390625 2.699219 8.742188 C 3.222656 9.183594 3.820312 9.503906 4.453125 9.757812 C 4.707031 9.863281 4.972656 9.945312 5.230469 10.066406 C 5.230469 10.957031 5.230469 11.851562 5.230469 12.742188 C 5.589844 12.742188 5.929688 12.742188 6.28125 12.742188 C 6.28125 11.910156 6.28125 11.085938 6.304688 10.261719 M 18.957031 7.230469 C 18.8125 7.027344 18.628906 6.875 18.386719 6.792969 C 18.085938 6.6875 17.773438 6.65625 17.457031 6.65625 C 16.964844 6.652344 16.472656 6.65625 15.976562 6.65625 C 15.976562 8.691406 15.976562 10.714844 15.976562 12.746094 C 16.328125 12.746094 16.671875 12.746094 17.023438 12.746094 C 17.023438 11.941406 17.023438 11.148438 17.023438 10.347656 C 17.160156 10.347656 17.28125 10.351562 17.40625 10.34375 C 17.488281 10.339844 17.515625 10.375 17.535156 10.445312 C 17.628906 10.75 17.722656 11.050781 17.820312 11.351562 C 17.941406 11.714844 18.074219 12.078125 18.183594 12.445312 C 18.277344 12.746094 18.265625 12.75 18.578125 12.75 C 18.835938 12.75 19.089844 12.75 19.355469 12.75 C 19.058594 11.882812 18.769531 11.035156 18.476562 10.1875 C 18.496094 10.171875 18.503906 10.160156 18.515625 10.15625 C 18.929688 9.949219 19.121094 9.605469 19.125 9.160156 C 19.128906 8.75 19.121094 8.339844 19.128906 7.929688 C 19.132812 7.6875 19.085938 7.460938 18.957031 7.230469 M 25.292969 10.667969 C 25.292969 9.707031 25.300781 8.75 25.289062 7.789062 C 25.285156 7.375 25.082031 7.058594 24.710938 6.859375 C 24.421875 6.699219 24.09375 6.667969 23.773438 6.660156 C 23.269531 6.644531 22.769531 6.65625 22.265625 6.65625 C 22.226562 6.65625 22.183594 6.660156 22.148438 6.660156 C 22.148438 8.695312 22.148438 10.71875 22.148438 12.75 C 22.503906 12.75 22.855469 12.757812 23.203125 12.75 C 23.578125 12.738281 23.957031 12.742188 24.324219 12.6875 C 24.914062 12.605469 25.28125 12.1875 25.292969 11.589844 C 25.296875 11.292969 25.292969 10.992188 25.292969 10.667969 M 11.824219 9.96875 C 11.832031 10.5625 11.828125 11.15625 11.855469 11.75 C 11.878906 12.242188 12.160156 12.574219 12.644531 12.722656 C 13.082031 12.855469 13.53125 12.863281 13.980469 12.777344 C 14.71875 12.636719 15.015625 12.246094 15.027344 11.597656 C 15.050781 10.34375 15.039062 9.089844 15.03125 7.835938 C 15.027344 7.597656 14.980469 7.359375 14.839844 7.152344 C 14.574219 6.753906 14.15625 6.632812 13.714844 6.605469 C 13.410156 6.589844 13.09375 6.613281 12.792969 6.660156 C 12.484375 6.710938 12.222656 6.855469 12.035156 7.121094 C 11.882812 7.34375 11.828125 7.589844 11.824219 7.84375 C 11.816406 8.542969 11.824219 9.242188 11.824219 9.96875 M 26.203125 18.832031 C 26.203125 19.058594 26.203125 19.285156 26.203125 19.507812 C 26.5625 19.507812 26.90625 19.507812 27.261719 19.507812 C 27.261719 18.632812 27.261719 17.761719 27.261719 16.898438 C 27.644531 16.898438 28.015625 16.898438 28.398438 16.898438 C 28.398438 17.777344 28.398438 18.648438 28.398438 19.511719 C 28.75 19.511719 29.089844 19.511719 29.4375 19.511719 C 29.4375 17.480469 29.4375 15.457031 29.4375 13.429688 C 29.085938 13.429688 28.742188 13.429688 28.390625 13.429688 C 28.390625 14.277344 28.390625 15.117188 28.390625 15.957031 C 28.003906 15.957031 27.632812 15.957031 27.25 15.957031 C 27.25 15.109375 27.25 14.269531 27.25 13.429688 C 26.894531 13.429688 26.550781 13.429688 26.203125 13.429688 C 26.203125 15.226562 26.203125 17.015625 26.203125 18.832031 M 24.851562 13.644531 C 24.78125 13.605469 24.714844 13.566406 24.644531 13.535156 C 24.148438 13.316406 23.632812 13.320312 23.113281 13.425781 C 22.847656 13.480469 22.605469 13.597656 22.421875 13.8125 C 22.183594 14.09375 22.140625 14.425781 22.140625 14.765625 C 22.140625 15.984375 22.15625 17.203125 22.167969 18.421875 C 22.175781 19.039062 22.507812 19.375 23.023438 19.511719 C 23.441406 19.625 23.871094 19.628906 24.292969 19.542969 C 24.945312 19.410156 25.289062 19.019531 25.292969 18.34375 C 25.292969 17.949219 25.292969 17.550781 25.292969 17.15625 C 25.292969 17.117188 25.289062 17.074219 25.285156 17.039062 C 24.933594 17.039062 24.589844 17.039062 24.25 17.039062 C 24.246094 17.054688 24.242188 17.066406 24.242188 17.074219 C 24.242188 17.441406 24.238281 17.808594 24.242188 18.179688 C 24.246094 18.609375 23.910156 18.742188 23.558594 18.660156 C 23.292969 18.59375 23.191406 18.4375 23.191406 18.113281 C 23.1875 17.027344 23.1875 15.941406 23.191406 14.855469 C 23.195312 14.46875 23.300781 14.355469 23.675781 14.289062 C 23.996094 14.230469 24.242188 14.429688 24.242188 14.746094 C 24.242188 15.085938 24.242188 15.421875 24.242188 15.761719 C 24.597656 15.761719 24.941406 15.761719 25.292969 15.761719 C 25.292969 15.398438 25.289062 15.039062 25.292969 14.683594 C 25.304688 14.277344 25.191406 13.925781 24.851562 13.644531 M 26.855469 12.699219 C 26.917969 12.269531 26.984375 11.839844 27.050781 11.417969 C 27.433594 11.417969 27.796875 11.417969 28.15625 11.417969 C 28.230469 11.863281 28.300781 12.304688 28.375 12.746094 C 28.730469 12.746094 29.082031 12.746094 29.445312 12.746094 C 29.054688 10.710938 28.664062 8.683594 28.277344 6.65625 C 27.859375 6.65625 27.460938 6.65625 27.0625 6.652344 C 26.964844 6.652344 26.949219 6.703125 26.941406 6.777344 C 26.921875 6.917969 26.890625 7.054688 26.867188 7.195312 C 26.796875 7.554688 26.722656 7.914062 26.65625 8.277344 C 26.578125 8.710938 26.503906 9.144531 26.421875 9.574219 C 26.324219 10.105469 26.21875 10.636719 26.117188 11.164062 C 26.042969 11.550781 25.964844 11.9375 25.890625 12.328125 C 25.867188 12.460938 25.847656 12.601562 25.824219 12.75 C 26.160156 12.75 26.476562 12.75 26.792969 12.75 C 26.808594 12.75 26.824219 12.730469 26.855469 12.699219 M 13.527344 5.742188 C 13.644531 5.378906 13.761719 5.011719 13.882812 4.632812 C 14.3125 4.875 14.730469 5.113281 15.152344 5.351562 C 15.15625 5.34375 15.164062 5.332031 15.171875 5.324219 C 14.90625 4.925781 14.636719 4.53125 14.367188 4.128906 C 14.835938 3.945312 15.285156 3.773438 15.730469 3.601562 C 15.730469 3.589844 15.730469 3.582031 15.726562 3.570312 C 15.242188 3.53125 14.757812 3.496094 14.257812 3.453125 C 14.40625 2.988281 14.550781 2.523438 14.695312 2.0625 C 14.683594 2.058594 14.675781 2.050781 14.664062 2.046875 C 14.332031 2.398438 13.996094 2.75 13.65625 3.101562 C 13.375 2.695312 13.097656 2.296875 12.824219 1.898438 C 12.8125 1.902344 12.804688 1.90625 12.796875 1.910156 C 12.859375 2.347656 12.925781 2.785156 12.992188 3.257812 C 12.609375 2.878906 12.195312 2.605469 11.753906 2.375 C 11.15625 2.0625 10.523438 1.851562 9.863281 1.707031 C 9.261719 1.570312 8.648438 1.5 8.03125 1.488281 C 7.625 1.480469 7.210938 1.5 6.804688 1.542969 C 6.363281 1.589844 5.917969 1.65625 5.484375 1.753906 C 4.824219 1.898438 4.199219 2.136719 3.613281 2.46875 C 2.972656 2.835938 2.414062 3.285156 2.027344 3.921875 C 1.675781 4.496094 1.558594 5.109375 1.722656 5.761719 C 1.902344 6.496094 2.375 7.035156 2.953125 7.492188 C 3.324219 7.785156 3.742188 8.003906 4.167969 8.199219 C 4.332031 8.273438 4.5 8.335938 4.667969 8.398438 C 4.636719 8.351562 4.59375 8.328125 4.554688 8.308594 C 4.191406 8.101562 3.8125 7.917969 3.46875 7.683594 C 2.949219 7.332031 2.542969 6.871094 2.300781 6.285156 C 2.09375 5.78125 2.0625 5.265625 2.234375 4.75 C 2.410156 4.226562 2.726562 3.796875 3.144531 3.429688 C 3.453125 3.160156 3.789062 2.933594 4.152344 2.738281 C 4.722656 2.4375 5.328125 2.234375 5.957031 2.085938 C 6.605469 1.933594 7.265625 1.867188 7.929688 1.851562 C 8.257812 1.84375 8.589844 1.867188 8.914062 1.90625 C 9.355469 1.960938 9.804688 2.015625 10.234375 2.121094 C 10.648438 2.222656 11.058594 2.363281 11.453125 2.523438 C 11.929688 2.71875 12.378906 2.972656 12.796875 3.339844 C 12.371094 3.308594 11.976562 3.28125 11.574219 3.253906 C 11.988281 3.5 12.390625 3.746094 12.804688 3.996094 C 12.449219 4.371094 12.121094 4.71875 11.792969 5.066406 C 11.800781 5.074219 11.808594 5.085938 11.816406 5.09375 C 12.265625 4.925781 12.714844 4.753906 13.1875 4.578125 C 13.261719 5.058594 13.335938 5.527344 13.40625 5.996094 C 13.417969 5.996094 13.425781 5.996094 13.4375 5.996094 C 13.464844 5.917969 13.496094 5.84375 13.527344 5.742188 M 19.667969 14.722656 C 19.667969 14.597656 19.667969 14.476562 19.667969 14.339844 C 20.234375 14.339844 20.785156 14.339844 21.332031 14.339844 C 21.332031 14.027344 21.332031 13.726562 21.332031 13.433594 C 20.421875 13.433594 19.519531 13.433594 18.625 13.433594 C 18.625 15.464844 18.625 17.488281 18.625 19.507812 C 19.546875 19.507812 20.457031 19.507812 21.359375 19.507812 C 21.359375 19.207031 21.359375 18.917969 21.359375 18.617188 C 20.792969 18.617188 20.234375 18.617188 19.671875 18.617188 C 19.671875 18.039062 19.671875 17.46875 19.671875 16.886719 C 20.136719 16.886719 20.59375 16.886719 21.050781 16.886719 C 21.050781 16.574219 21.050781 16.273438 21.050781 15.960938 C 20.585938 15.960938 20.128906 15.960938 19.667969 15.960938 C 19.667969 15.550781 19.667969 15.152344 19.667969 14.722656 M 17.988281 13.523438 C 18.011719 13.414062 17.9375 13.421875 17.863281 13.421875 C 16.90625 13.421875 15.949219 13.421875 14.992188 13.421875 C 14.960938 13.421875 14.929688 13.425781 14.898438 13.429688 C 14.898438 13.738281 14.898438 14.039062 14.898438 14.351562 C 15.242188 14.351562 15.574219 14.351562 15.921875 14.351562 C 15.921875 16.078125 15.921875 17.796875 15.921875 19.507812 C 16.277344 19.507812 16.621094 19.507812 16.972656 19.507812 C 16.972656 17.785156 16.972656 16.070312 16.972656 14.34375 C 17.3125 14.34375 17.644531 14.34375 17.988281 14.34375 C 17.988281 14.070312 17.988281 13.8125 17.988281 13.523438 M 9.664062 11.5625 C 9.664062 9.929688 9.664062 8.296875 9.664062 6.664062 C 9.304688 6.664062 8.960938 6.664062 8.617188 6.664062 C 8.617188 8.695312 8.617188 10.71875 8.617188 12.742188 C 9.488281 12.742188 10.355469 12.742188 11.21875 12.742188 C 11.21875 12.433594 11.21875 12.136719 11.21875 11.824219 C 10.695312 11.824219 10.183594 11.824219 9.664062 11.824219 C 9.664062 11.738281 9.664062 11.664062 9.664062 11.5625 M 21.144531 8.765625 C 21.144531 8.066406 21.144531 7.363281 21.144531 6.664062 C 20.785156 6.664062 20.441406 6.664062 20.101562 6.664062 C 20.101562 8.695312 20.101562 10.71875 20.101562 12.742188 C 20.453125 12.742188 20.796875 12.742188 21.144531 12.742188 C 21.144531 11.421875 21.144531 10.105469 21.144531 8.765625 M 29.753906 19.167969 C 29.742188 19.554688 29.820312 19.523438 30.121094 19.519531 C 30.21875 19.519531 30.269531 19.480469 30.265625 19.378906 C 30.265625 19.25 30.277344 19.117188 30.261719 18.988281 C 30.257812 18.941406 30.207031 18.871094 30.160156 18.855469 C 29.894531 18.769531 29.753906 18.875 29.753906 19.167969 Z M 29.753906 19.167969 "/>
<path style=" stroke:none;fill-rule:nonzero;fill:rgb(51.764709%,3.921569%,17.647059%);fill-opacity:1;" d="M 18.964844 7.238281 C 19.085938 7.460938 19.132812 7.6875 19.128906 7.929688 C 19.121094 8.339844 19.128906 8.75 19.125 9.160156 C 19.121094 9.605469 18.929688 9.949219 18.515625 10.15625 C 18.503906 10.160156 18.496094 10.171875 18.476562 10.1875 C 18.769531 11.035156 19.058594 11.882812 19.355469 12.75 C 19.089844 12.75 18.835938 12.75 18.578125 12.75 C 18.265625 12.75 18.277344 12.746094 18.183594 12.445312 C 18.074219 12.078125 17.941406 11.714844 17.820312 11.351562 C 17.722656 11.050781 17.628906 10.75 17.535156 10.445312 C 17.515625 10.375 17.488281 10.339844 17.40625 10.34375 C 17.28125 10.351562 17.160156 10.347656 17.023438 10.347656 C 17.023438 11.148438 17.023438 11.941406 17.023438 12.746094 C 16.671875 12.746094 16.328125 12.746094 15.976562 12.746094 C 15.976562 10.714844 15.976562 8.691406 15.976562 6.65625 C 16.472656 6.65625 16.964844 6.652344 17.457031 6.65625 C 17.773438 6.65625 18.085938 6.6875 18.386719 6.792969 C 18.628906 6.875 18.8125 7.027344 18.964844 7.238281 M 17.320312 9.453125 C 17.402344 9.453125 17.484375 9.457031 17.5625 9.449219 C 17.863281 9.417969 18.058594 9.328125 18.070312 9.023438 C 18.085938 8.683594 18.078125 8.34375 18.074219 8.003906 C 18.070312 7.808594 17.9375 7.632812 17.742188 7.609375 C 17.507812 7.578125 17.269531 7.578125 17.03125 7.566406 C 17.03125 8.210938 17.03125 8.828125 17.03125 9.453125 C 17.125 9.453125 17.210938 9.453125 17.320312 9.453125 Z M 17.320312 9.453125 "/>
<path style=" stroke:none;fill-rule:nonzero;fill:rgb(51.764709%,3.921569%,17.647059%);fill-opacity:1;" d="M 25.292969 10.683594 C 25.292969 10.992188 25.296875 11.292969 25.292969 11.589844 C 25.28125 12.1875 24.914062 12.605469 24.324219 12.6875 C 23.957031 12.742188 23.578125 12.738281 23.203125 12.75 C 22.855469 12.757812 22.503906 12.75 22.148438 12.75 C 22.148438 10.71875 22.148438 8.695312 22.148438 6.660156 C 22.183594 6.660156 22.226562 6.65625 22.265625 6.65625 C 22.769531 6.65625 23.269531 6.644531 23.773438 6.660156 C 24.09375 6.667969 24.421875 6.699219 24.710938 6.859375 C 25.082031 7.058594 25.285156 7.375 25.289062 7.789062 C 25.300781 8.75 25.292969 9.707031 25.292969 10.683594 M 23.460938 11.855469 C 23.601562 11.847656 23.742188 11.847656 23.878906 11.824219 C 24.101562 11.789062 24.238281 11.664062 24.238281 11.425781 C 24.246094 10.285156 24.242188 9.144531 24.242188 8.003906 C 24.242188 7.832031 24.097656 7.625 23.949219 7.609375 C 23.699219 7.582031 23.449219 7.578125 23.199219 7.566406 C 23.199219 9.011719 23.199219 10.429688 23.199219 11.855469 C 23.28125 11.855469 23.355469 11.855469 23.460938 11.855469 Z M 23.460938 11.855469 "/>
<path style=" stroke:none;fill-rule:nonzero;fill:rgb(51.764709%,3.921569%,17.647059%);fill-opacity:1;" d="M 11.824219 9.953125 C 11.824219 9.242188 11.816406 8.542969 11.824219 7.84375 C 11.828125 7.589844 11.882812 7.34375 12.035156 7.121094 C 12.222656 6.855469 12.484375 6.710938 12.792969 6.660156 C 13.09375 6.613281 13.410156 6.589844 13.714844 6.605469 C 14.15625 6.632812 14.574219 6.753906 14.839844 7.152344 C 14.980469 7.359375 15.027344 7.597656 15.03125 7.835938 C 15.039062 9.089844 15.050781 10.34375 15.027344 11.597656 C 15.015625 12.246094 14.71875 12.636719 13.980469 12.777344 C 13.53125 12.863281 13.082031 12.855469 12.644531 12.722656 C 12.160156 12.574219 11.878906 12.242188 11.855469 11.75 C 11.828125 11.15625 11.832031 10.5625 11.824219 9.953125 M 13.980469 9.800781 C 13.980469 9.214844 13.984375 8.625 13.980469 8.039062 C 13.980469 7.957031 13.957031 7.871094 13.925781 7.789062 C 13.835938 7.539062 13.621094 7.523438 13.390625 7.519531 C 13.046875 7.507812 12.878906 7.726562 12.875 8.027344 C 12.871094 9.148438 12.863281 10.265625 12.878906 11.382812 C 12.886719 11.726562 12.980469 11.835938 13.277344 11.898438 C 13.507812 11.949219 13.871094 11.886719 13.929688 11.644531 C 13.949219 11.554688 13.980469 11.460938 13.980469 11.367188 C 13.984375 10.855469 13.980469 10.339844 13.980469 9.800781 Z M 13.980469 9.800781 "/>
<path style=" stroke:none;fill-rule:nonzero;fill:rgb(51.764709%,3.921569%,17.647059%);fill-opacity:1;" d="M 26.203125 18.820312 C 26.203125 17.015625 26.203125 15.226562 26.203125 13.429688 C 26.550781 13.429688 26.894531 13.429688 27.25 13.429688 C 27.25 14.269531 27.25 15.109375 27.25 15.957031 C 27.632812 15.957031 28.003906 15.957031 28.390625 15.957031 C 28.390625 15.117188 28.390625 14.277344 28.390625 13.429688 C 28.742188 13.429688 29.085938 13.429688 29.4375 13.429688 C 29.4375 15.457031 29.4375 17.480469 29.4375 19.511719 C 29.089844 19.511719 28.75 19.511719 28.398438 19.511719 C 28.398438 18.648438 28.398438 17.777344 28.398438 16.898438 C 28.015625 16.898438 27.644531 16.898438 27.261719 16.898438 C 27.261719 17.761719 27.261719 18.632812 27.261719 19.507812 C 26.90625 19.507812 26.5625 19.507812 26.203125 19.507812 C 26.203125 19.285156 26.203125 19.058594 26.203125 18.820312 Z M 26.203125 18.820312 "/>
<path style=" stroke:none;fill-rule:nonzero;fill:rgb(51.764709%,3.921569%,17.647059%);fill-opacity:1;" d="M 24.855469 13.652344 C 25.191406 13.925781 25.304688 14.277344 25.292969 14.683594 C 25.289062 15.039062 25.292969 15.398438 25.292969 15.761719 C 24.941406 15.761719 24.597656 15.761719 24.242188 15.761719 C 24.242188 15.421875 24.242188 15.085938 24.242188 14.746094 C 24.242188 14.429688 23.996094 14.230469 23.675781 14.289062 C 23.300781 14.355469 23.195312 14.46875 23.191406 14.855469 C 23.1875 15.941406 23.1875 17.027344 23.191406 18.113281 C 23.191406 18.4375 23.292969 18.59375 23.558594 18.660156 C 23.910156 18.742188 24.246094 18.609375 24.242188 18.179688 C 24.238281 17.808594 24.242188 17.441406 24.242188 17.074219 C 24.242188 17.066406 24.246094 17.054688 24.25 17.039062 C 24.589844 17.039062 24.933594 17.039062 25.285156 17.039062 C 25.289062 17.074219 25.292969 17.117188 25.292969 17.15625 C 25.292969 17.550781 25.292969 17.949219 25.292969 18.34375 C 25.289062 19.019531 24.945312 19.410156 24.292969 19.542969 C 23.871094 19.628906 23.441406 19.625 23.023438 19.511719 C 22.507812 19.375 22.175781 19.039062 22.167969 18.421875 C 22.15625 17.203125 22.140625 15.984375 22.140625 14.765625 C 22.140625 14.425781 22.183594 14.09375 22.421875 13.8125 C 22.605469 13.597656 22.847656 13.480469 23.113281 13.425781 C 23.632812 13.320312 24.148438 13.316406 24.644531 13.535156 C 24.714844 13.566406 24.78125 13.605469 24.855469 13.652344 Z M 24.855469 13.652344 "/>
<path style=" stroke:none;fill-rule:nonzero;fill:rgb(51.764709%,3.921569%,17.647059%);fill-opacity:1;" d="M 26.847656 12.710938 C 26.824219 12.730469 26.808594 12.75 26.792969 12.75 C 26.476562 12.75 26.160156 12.75 25.824219 12.75 C 25.847656 12.601562 25.867188 12.460938 25.890625 12.328125 C 25.964844 11.9375 26.042969 11.550781 26.117188 11.164062 C 26.21875 10.636719 26.324219 10.105469 26.421875 9.574219 C 26.503906 9.144531 26.578125 8.710938 26.65625 8.277344 C 26.722656 7.914062 26.796875 7.554688 26.867188 7.195312 C 26.890625 7.054688 26.921875 6.917969 26.941406 6.777344 C 26.949219 6.703125 26.964844 6.652344 27.0625 6.652344 C 27.460938 6.65625 27.859375 6.65625 28.277344 6.65625 C 28.664062 8.683594 29.054688 10.710938 29.445312 12.746094 C 29.082031 12.746094 28.730469 12.746094 28.375 12.746094 C 28.300781 12.304688 28.230469 11.863281 28.15625 11.417969 C 27.796875 11.417969 27.433594 11.417969 27.050781 11.417969 C 26.984375 11.839844 26.917969 12.269531 26.847656 12.710938 M 27.367188 9.464844 C 27.308594 9.820312 27.253906 10.175781 27.195312 10.535156 C 27.480469 10.535156 27.75 10.535156 28.015625 10.535156 C 27.882812 9.691406 27.746094 8.851562 27.605469 7.972656 C 27.523438 8.488281 27.445312 8.964844 27.367188 9.464844 Z M 27.367188 9.464844 "/>
<path style=" stroke:none;fill-rule:nonzero;fill:rgb(67.843139%,58.823532%,42.745098%);fill-opacity:1;" d="M 13.527344 5.753906 C 13.496094 5.84375 13.464844 5.917969 13.4375 5.996094 C 13.425781 5.996094 13.417969 5.996094 13.40625 5.996094 C 13.335938 5.527344 13.261719 5.058594 13.1875 4.578125 C 12.714844 4.753906 12.265625 4.925781 11.816406 5.09375 C 11.808594 5.085938 11.800781 5.074219 11.792969 5.066406 C 12.121094 4.71875 12.449219 4.371094 12.804688 3.996094 C 12.390625 3.746094 11.988281 3.5 11.574219 3.253906 C 11.976562 3.28125 12.371094 3.308594 12.796875 3.339844 C 12.378906 2.972656 11.929688 2.71875 11.453125 2.523438 C 11.058594 2.363281 10.648438 2.222656 10.234375 2.121094 C 9.804688 2.015625 9.355469 1.960938 8.914062 1.90625 C 8.589844 1.867188 8.257812 1.84375 7.929688 1.851562 C 7.265625 1.867188 6.605469 1.933594 5.957031 2.085938 C 5.328125 2.234375 4.722656 2.4375 4.152344 2.738281 C 3.789062 2.933594 3.453125 3.160156 3.144531 3.429688 C 2.726562 3.796875 2.410156 4.226562 2.234375 4.75 C 2.0625 5.265625 2.09375 5.78125 2.300781 6.285156 C 2.542969 6.871094 2.949219 7.332031 3.46875 7.683594 C 3.8125 7.917969 4.191406 8.101562 4.554688 8.308594 C 4.59375 8.328125 4.636719 8.351562 4.667969 8.398438 C 4.5 8.335938 4.332031 8.273438 4.167969 8.199219 C 3.742188 8.003906 3.324219 7.785156 2.953125 7.492188 C 2.375 7.035156 1.902344 6.496094 1.722656 5.761719 C 1.558594 5.109375 1.675781 4.496094 2.027344 3.921875 C 2.414062 3.285156 2.972656 2.835938 3.613281 2.46875 C 4.199219 2.136719 4.824219 1.898438 5.484375 1.753906 C 5.917969 1.65625 6.363281 1.589844 6.804688 1.542969 C 7.210938 1.5 7.625 1.480469 8.03125 1.488281 C 8.648438 1.5 9.261719 1.570312 9.863281 1.707031 C 10.523438 1.851562 11.15625 2.0625 11.753906 2.375 C 12.195312 2.605469 12.609375 2.878906 12.992188 3.257812 C 12.925781 2.785156 12.859375 2.347656 12.796875 1.910156 C 12.804688 1.90625 12.8125 1.902344 12.824219 1.898438 C 13.097656 2.296875 13.375 2.695312 13.65625 3.101562 C 13.996094 2.75 14.332031 2.398438 14.664062 2.046875 C 14.675781 2.050781 14.683594 2.058594 14.695312 2.0625 C 14.550781 2.523438 14.40625 2.988281 14.257812 3.453125 C 14.757812 3.496094 15.242188 3.53125 15.726562 3.570312 C 15.730469 3.582031 15.730469 3.589844 15.730469 3.601562 C 15.285156 3.773438 14.835938 3.945312 14.367188 4.128906 C 14.636719 4.53125 14.90625 4.925781 15.171875 5.324219 C 15.164062 5.332031 15.15625 5.34375 15.152344 5.351562 C 14.730469 5.113281 14.3125 4.875 13.882812 4.632812 C 13.761719 5.011719 13.644531 5.378906 13.527344 5.753906 Z M 13.527344 5.753906 "/>
<path style=" stroke:none;fill-rule:nonzero;fill:rgb(51.764709%,3.921569%,17.647059%);fill-opacity:1;" d="M 19.667969 14.738281 C 19.667969 15.152344 19.667969 15.550781 19.667969 15.960938 C 20.128906 15.960938 20.585938 15.960938 21.050781 15.960938 C 21.050781 16.273438 21.050781 16.574219 21.050781 16.886719 C 20.59375 16.886719 20.136719 16.886719 19.671875 16.886719 C 19.671875 17.46875 19.671875 18.039062 19.671875 18.617188 C 20.234375 18.617188 20.792969 18.617188 21.359375 18.617188 C 21.359375 18.917969 21.359375 19.207031 21.359375 19.507812 C 20.457031 19.507812 19.546875 19.507812 18.625 19.507812 C 18.625 17.488281 18.625 15.464844 18.625 13.433594 C 19.519531 13.433594 20.421875 13.433594 21.332031 13.433594 C 21.332031 13.726562 21.332031 14.027344 21.332031 14.339844 C 20.785156 14.339844 20.234375 14.339844 19.667969 14.339844 C 19.667969 14.476562 19.667969 14.597656 19.667969 14.738281 Z M 19.667969 14.738281 "/>
<path style=" stroke:none;fill-rule:nonzero;fill:rgb(51.764709%,3.921569%,17.647059%);fill-opacity:1;" d="M 17.988281 13.539062 C 17.988281 13.8125 17.988281 14.070312 17.988281 14.34375 C 17.644531 14.34375 17.3125 14.34375 16.972656 14.34375 C 16.972656 16.070312 16.972656 17.785156 16.972656 19.507812 C 16.621094 19.507812 16.277344 19.507812 15.921875 19.507812 C 15.921875 17.796875 15.921875 16.078125 15.921875 14.351562 C 15.574219 14.351562 15.242188 14.351562 14.898438 14.351562 C 14.898438 14.039062 14.898438 13.738281 14.898438 13.429688 C 14.929688 13.425781 14.960938 13.421875 14.992188 13.421875 C 15.949219 13.421875 16.90625 13.421875 17.863281 13.421875 C 17.9375 13.421875 18.011719 13.414062 17.988281 13.539062 Z M 17.988281 13.539062 "/>
<path style=" stroke:none;fill-rule:nonzero;fill:rgb(51.764709%,3.921569%,17.647059%);fill-opacity:1;" d="M 9.664062 11.574219 C 9.664062 11.664062 9.664062 11.738281 9.664062 11.824219 C 10.183594 11.824219 10.695312 11.824219 11.21875 11.824219 C 11.21875 12.136719 11.21875 12.433594 11.21875 12.742188 C 10.355469 12.742188 9.488281 12.742188 8.617188 12.742188 C 8.617188 10.71875 8.617188 8.695312 8.617188 6.664062 C 8.960938 6.664062 9.304688 6.664062 9.664062 6.664062 C 9.664062 8.296875 9.664062 9.929688 9.664062 11.574219 Z M 9.664062 11.574219 "/>
<path style=" stroke:none;fill-rule:nonzero;fill:rgb(51.764709%,3.921569%,17.647059%);fill-opacity:1;" d="M 21.144531 8.78125 C 21.144531 10.105469 21.144531 11.421875 21.144531 12.742188 C 20.796875 12.742188 20.453125 12.742188 20.101562 12.742188 C 20.101562 10.71875 20.101562 8.695312 20.101562 6.664062 C 20.441406 6.664062 20.785156 6.664062 21.144531 6.664062 C 21.144531 7.363281 21.144531 8.066406 21.144531 8.78125 Z M 21.144531 8.78125 "/>
<path style=" stroke:none;fill-rule:nonzero;fill:rgb(67.843139%,58.823532%,42.745098%);fill-opacity:1;" d="M 6.28125 9.3125 C 6.730469 9.347656 7.175781 9.382812 7.644531 9.421875 C 7.738281 9.726562 7.839844 10.054688 7.957031 10.429688 C 7.378906 10.371094 6.84375 10.316406 6.28125 10.261719 C 6.136719 10.234375 6.015625 10.210938 5.894531 10.183594 C 5.671875 10.136719 5.453125 10.089844 5.234375 10.039062 C 4.972656 9.945312 4.707031 9.863281 4.453125 9.757812 C 3.820312 9.503906 3.222656 9.183594 2.699219 8.742188 C 2.28125 8.390625 1.921875 7.992188 1.664062 7.515625 C 1.488281 7.195312 1.363281 6.851562 1.339844 6.484375 C 1.320312 6.234375 1.335938 5.980469 1.351562 5.726562 C 1.402344 5.90625 1.445312 6.085938 1.503906 6.261719 C 1.65625 6.6875 1.90625 7.054688 2.210938 7.394531 C 2.734375 7.972656 3.378906 8.378906 4.089844 8.691406 C 4.449219 8.847656 4.832031 8.957031 5.21875 9.09375 C 5.585938 9.171875 5.933594 9.242188 6.28125 9.3125 Z M 6.28125 9.3125 "/>
<path style=" stroke:none;fill-rule:nonzero;fill:rgb(51.764709%,3.921569%,17.647059%);fill-opacity:1;" d="M 6.28125 9.296875 C 5.933594 9.242188 5.585938 9.171875 5.230469 9.09375 C 5.226562 8.28125 5.226562 7.476562 5.226562 6.664062 C 6.128906 6.664062 7.019531 6.664062 7.921875 6.664062 C 7.921875 6.960938 7.921875 7.261719 7.921875 7.574219 C 7.378906 7.574219 6.839844 7.574219 6.28125 7.574219 C 6.28125 8.152344 6.28125 8.71875 6.28125 9.296875 Z M 6.28125 9.296875 "/>
<path style=" stroke:none;fill-rule:nonzero;fill:rgb(51.764709%,3.921569%,17.647059%);fill-opacity:1;" d="M 5.230469 10.054688 C 5.453125 10.089844 5.671875 10.136719 5.894531 10.183594 C 6.015625 10.210938 6.136719 10.234375 6.269531 10.261719 C 6.28125 11.085938 6.28125 11.910156 6.28125 12.742188 C 5.929688 12.742188 5.589844 12.742188 5.230469 12.742188 C 5.230469 11.851562 5.230469 10.957031 5.230469 10.054688 Z M 5.230469 10.054688 "/>
<path style=" stroke:none;fill-rule:nonzero;fill:rgb(51.764709%,3.921569%,17.647059%);fill-opacity:1;" d="M 29.753906 19.15625 C 29.753906 18.875 29.894531 18.769531 30.160156 18.855469 C 30.207031 18.871094 30.257812 18.941406 30.261719 18.988281 C 30.277344 19.117188 30.265625 19.25 30.265625 19.378906 C 30.269531 19.480469 30.21875 19.519531 30.121094 19.519531 C 29.820312 19.523438 29.742188 19.554688 29.753906 19.15625 Z M 29.753906 19.15625 "/>
<path style=" stroke:none;fill-rule:nonzero;fill:rgb(100%,100%,100%);fill-opacity:1;" d="M 17.308594 9.453125 C 17.210938 9.453125 17.125 9.453125 17.03125 9.453125 C 17.03125 8.828125 17.03125 8.210938 17.03125 7.566406 C 17.269531 7.578125 17.507812 7.578125 17.742188 7.609375 C 17.9375 7.632812 18.070312 7.808594 18.074219 8.003906 C 18.078125 8.34375 18.085938 8.683594 18.070312 9.023438 C 18.058594 9.328125 17.863281 9.417969 17.5625 9.449219 C 17.484375 9.457031 17.402344 9.453125 17.308594 9.453125 Z M 17.308594 9.453125 "/>
<path style=" stroke:none;fill-rule:nonzero;fill:rgb(100%,100%,100%);fill-opacity:1;" d="M 23.445312 11.855469 C 23.355469 11.855469 23.28125 11.855469 23.199219 11.855469 C 23.199219 10.429688 23.199219 9.011719 23.199219 7.566406 C 23.449219 7.578125 23.699219 7.582031 23.949219 7.609375 C 24.097656 7.625 24.242188 7.832031 24.242188 8.003906 C 24.242188 9.144531 24.246094 10.285156 24.238281 11.425781 C 24.238281 11.664062 24.101562 11.789062 23.878906 11.824219 C 23.742188 11.847656 23.601562 11.847656 23.445312 11.855469 Z M 23.445312 11.855469 "/>
<path style=" stroke:none;fill-rule:nonzero;fill:rgb(100%,100%,100%);fill-opacity:1;" d="M 13.980469 9.816406 C 13.980469 10.339844 13.984375 10.855469 13.980469 11.367188 C 13.980469 11.460938 13.949219 11.554688 13.929688 11.644531 C 13.871094 11.886719 13.507812 11.949219 13.277344 11.898438 C 12.980469 11.835938 12.886719 11.726562 12.878906 11.382812 C 12.863281 10.265625 12.871094 9.148438 12.875 8.027344 C 12.878906 7.726562 13.046875 7.507812 13.390625 7.519531 C 13.621094 7.523438 13.835938 7.539062 13.925781 7.789062 C 13.957031 7.871094 13.980469 7.957031 13.980469 8.039062 C 13.984375 8.625 13.980469 9.214844 13.980469 9.816406 Z M 13.980469 9.816406 "/>
<path style=" stroke:none;fill-rule:nonzero;fill:rgb(100%,100%,100%);fill-opacity:1;" d="M 27.367188 9.453125 C 27.445312 8.964844 27.523438 8.488281 27.605469 7.972656 C 27.746094 8.851562 27.882812 9.691406 28.015625 10.535156 C 27.75 10.535156 27.480469 10.535156 27.195312 10.535156 C 27.253906 10.175781 27.308594 9.820312 27.367188 9.453125 Z M 27.367188 9.453125 "/>
</g>
</svg>
