<svg version="1.1" id="Layer_1" xmlns="http://www.w3.org/2000/svg" xmlns:xlink="http://www.w3.org/1999/xlink" x="0px" y="0px"
	 width="100%" viewBox="0 0 1126 751" enable-background="new 0 0 1126 751" xml:space="preserve">
<path fill="#FFFFFF" opacity="1.000000" stroke="none" 
	d="
M686.000000,752.000000 
	C457.333344,752.000000 229.166687,752.000000 1.000031,752.000000 
	C1.000021,501.666687 1.000021,251.333389 1.000010,1.000064 
	C376.333282,1.000043 751.666565,1.000043 1127.000000,1.000021 
	C1127.000000,251.333267 1127.000000,501.666534 1127.000000,751.999878 
	C980.166687,752.000000 833.333313,752.000000 686.000000,752.000000 
M221.851608,367.014160 
	C240.764694,368.974182 259.677795,370.934204 280.012054,373.041504 
	C275.878052,359.541016 272.306427,347.877045 268.965912,336.967926 
	C252.565155,335.599457 236.798309,334.283875 221.003342,332.037628 
	C221.003342,311.787201 221.003342,291.536774 221.003342,270.859558 
	C240.613953,270.859558 259.671173,270.859558 278.699982,270.859558 
	C278.699982,259.698853 278.699982,248.972733 278.699982,238.293625 
	C247.020477,238.293625 215.641891,238.293625 183.870148,238.293625 
	C183.870148,267.365875 183.870148,296.145416 183.102844,324.936279 
	C170.005554,320.273956 156.544601,316.426331 143.888092,310.776581 
	C118.941757,299.640778 96.188820,285.112122 77.782555,264.393188 
	C67.067055,252.331299 58.269886,239.206985 52.984303,223.933594 
	C50.815029,217.665176 49.347782,211.153809 47.561188,204.752960 
	C46.997387,213.879349 46.494862,222.936050 47.116543,231.914917 
	C48.022594,245.000900 52.394787,257.311462 58.516949,268.769196 
	C67.622246,285.809906 80.214355,300.049164 94.956253,312.614594 
	C113.454849,328.382050 134.377869,339.814514 156.671387,348.962097 
	C165.691757,352.663361 174.976608,355.720123 184.014984,359.992432 
	C184.014984,391.902222 184.014984,423.812012 184.014984,455.699768 
	C196.633331,455.699768 208.693237,455.699768 221.014465,455.699768 
	C221.014465,425.945404 221.014465,396.490601 221.851608,367.014160 
M667.053406,258.576935 
	C661.988708,251.277924 655.546204,245.913345 647.000366,242.887405 
	C636.350525,239.116440 625.377502,238.098114 614.252136,238.028549 
	C596.971802,237.920486 579.690369,238.000000 562.224121,238.000000 
	C562.224121,310.824921 562.224121,383.210297 562.224121,455.754822 
	C574.512451,455.754822 586.575684,455.754822 599.080322,455.754822 
	C599.080322,427.116699 599.080322,398.720032 599.080322,370.000092 
	C603.816406,370.000092 608.127197,370.178009 612.414551,369.937836 
	C615.300537,369.776184 616.306824,371.044250 617.065491,373.604645 
	C620.271606,384.425598 623.594604,395.214447 627.057190,405.956299 
	C631.263062,419.003937 635.950806,431.903412 639.869629,445.034241 
	C643.110107,455.892273 642.749146,456.000000 653.676880,456.000000 
	C662.728455,456.000000 671.780029,456.000000 681.108337,456.000000 
	C670.633423,424.957336 660.396973,394.621399 650.183716,364.354126 
	C650.792664,363.806793 651.107422,363.378937 651.530396,363.164764 
	C666.115723,355.777710 672.808044,343.576477 672.968750,327.574890 
	C673.116028,312.913513 672.818420,298.246368 673.068665,283.587799 
	C673.216919,274.904755 671.555420,266.782715 667.053406,258.576935 
M890.000000,381.500000 
	C890.000000,347.182434 890.210571,312.863007 889.902161,278.548218 
	C889.768616,263.689026 882.548584,252.424957 869.528259,245.249146 
	C859.293152,239.608353 847.812744,238.482178 836.482178,238.140640 
	C818.839600,237.608841 801.169312,237.994202 783.510742,238.010941 
	C782.076599,238.012299 780.642578,238.167953 779.298340,238.246658 
	C779.298340,310.994232 779.298340,383.369629 779.298340,456.000000 
	C791.899536,456.000000 804.210999,456.259125 816.506592,455.929565 
	C829.679810,455.576416 842.987488,455.683197 855.968750,453.771423 
	C876.607788,450.731964 889.633179,435.850281 889.970703,414.484863 
	C890.139038,403.825745 890.000000,393.161774 890.000000,381.500000 
M416.000000,356.500000 
	C416.332397,377.752502 416.186676,399.026642 417.145935,420.250824 
	C417.936676,437.746063 427.917999,449.680817 444.894867,454.973633 
	C460.325623,459.784363 476.080750,460.072693 491.886169,456.987549 
	C517.925415,451.904755 528.296875,437.980865 528.746704,414.757538 
	C529.614685,369.945923 529.130676,325.104858 528.885681,280.277740 
	C528.838745,271.694733 527.165833,263.151825 522.203125,255.722824 
	C512.767700,241.598083 498.163147,237.178543 482.577148,236.251221 
	C471.818512,235.611099 460.787720,236.516663 450.119568,238.231216 
	C439.348328,239.962387 430.110870,245.205811 423.554382,254.720886 
	C418.109467,262.622833 416.267883,271.448486 416.130737,280.510162 
	C415.752563,305.501709 416.000000,330.502716 416.000000,356.500000 
M922.000000,673.500000 
	C922.000000,681.594727 922.000000,689.689453 922.000000,697.668945 
	C934.688538,697.668945 946.752991,697.668945 959.249634,697.668945 
	C959.249634,666.278564 959.249634,635.217468 959.249634,604.364807 
	C972.757263,604.364807 985.822388,604.364807 999.317200,604.364807 
	C999.317200,635.789612 999.317200,666.850708 999.317200,697.777710 
	C1011.704163,697.777710 1023.650085,697.777710 1035.777832,697.777710 
	C1035.777832,625.172974 1035.777832,552.790588 1035.777832,480.242432 
	C1023.492188,480.242432 1011.429443,480.242432 998.927246,480.242432 
	C998.927246,510.542725 998.927246,540.604187 998.927246,570.723511 
	C985.422180,570.723511 972.359314,570.723511 958.859009,570.723511 
	C958.859009,540.388428 958.859009,510.327057 958.859009,480.311035 
	C946.352234,480.311035 934.288391,480.311035 922.000000,480.311035 
	C922.000000,544.581177 922.000000,608.540588 922.000000,673.500000 
M874.395935,487.928986 
	C872.009033,486.614166 869.702820,485.118073 867.222290,484.013611 
	C849.752075,476.235016 831.580994,476.389771 813.364929,480.148407 
	C803.939026,482.093353 795.445740,486.279694 788.924805,494.017029 
	C780.533081,503.974121 779.136719,515.955933 779.134460,527.978088 
	C779.126526,571.565491 779.559998,615.154175 780.044495,658.739990 
	C780.291077,680.921753 791.940979,692.878296 810.124146,697.827515 
	C824.796204,701.821045 839.985901,701.935364 854.845093,698.849976 
	C877.717651,694.100647 889.914307,680.117126 889.991638,656.031311 
	C890.037109,641.865967 890.007019,627.700439 889.989075,613.534973 
	C889.987244,612.098389 889.834412,610.661926 889.757324,609.324524 
	C877.328613,609.324524 865.262512,609.324524 853.256226,609.324524 
	C853.137878,609.965149 853.028198,610.282532 853.027832,610.599976 
	C853.012390,623.765320 852.930420,636.931274 853.019897,650.095947 
	C853.124390,665.475830 841.298035,670.283630 828.901794,667.270874 
	C819.622803,665.015808 816.086792,659.364380 816.048523,647.719177 
	C815.920837,608.889587 815.885315,570.058838 816.061523,531.229675 
	C816.124329,517.388000 819.878662,513.323303 833.117371,510.951752 
	C844.371338,508.935730 852.961609,515.986206 852.992493,527.322571 
	C853.025452,539.432983 853.000000,551.543579 853.000000,563.726807 
	C865.566589,563.726807 877.631653,563.726807 890.000000,563.726807 
	C890.000000,550.653625 889.792297,537.847046 890.054932,525.050110 
	C890.352478,510.550415 886.389587,497.983978 874.395935,487.928986 
M944.940796,454.205505 
	C947.243530,438.834290 949.546326,423.463104 951.818909,408.293091 
	C965.374939,408.293091 978.130615,408.293091 990.753479,408.293091 
	C993.328491,424.297363 995.854370,439.995880 998.395203,455.787537 
	C1010.938354,455.787537 1023.373169,455.787537 1036.087402,455.787537 
	C1022.353333,383.020386 1008.667786,310.510010 994.982361,238.000229 
	C980.248779,238.000229 966.263733,238.092056 952.281494,237.935135 
	C948.822510,237.896301 948.332214,239.701172 947.948059,242.431732 
	C947.248291,247.405380 946.259399,252.339981 945.330872,257.279541 
	C942.905884,270.179626 940.371887,283.059631 938.023682,295.973541 
	C935.208984,311.453674 932.639954,326.978760 929.785583,342.451324 
	C926.287781,361.411255 922.610229,380.338074 918.999512,399.277161 
	C916.360107,413.121155 913.660461,426.953827 911.077454,440.808319 
	C910.166687,445.693390 909.522339,450.628143 908.689514,455.969208 
	C920.567261,455.969208 931.695679,455.983368 942.823853,455.927307 
	C943.379395,455.924530 943.931885,455.312103 944.940796,454.205505 
M475.983673,205.389969 
	C480.088043,192.296188 484.192444,179.202393 488.436737,165.662186 
	C503.614227,174.396973 518.370422,182.889297 533.126587,191.381638 
	C533.363586,191.042038 533.600586,190.702438 533.837524,190.362839 
	C524.454590,176.207367 515.071655,162.051895 505.502869,147.616013 
	C522.020935,141.142471 537.800903,134.958176 553.580933,128.773880 
	C553.526489,128.426788 553.472107,128.079697 553.417725,127.732613 
	C536.374023,126.346252 519.330383,124.959885 501.709229,123.526543 
	C506.867493,106.797890 511.963898,90.269966 517.060242,73.742050 
	C516.722107,73.560448 516.383911,73.378838 516.045715,73.197235 
	C504.258118,85.736397 492.470490,98.275566 480.542847,110.963661 
	C470.646790,96.438858 460.926086,82.171501 451.205414,67.904137 
	C450.894257,68.051071 450.583099,68.198006 450.271973,68.344940 
	C452.518677,83.992134 454.765381,99.639328 457.192535,116.543274 
	C443.669708,102.998184 429.163116,93.143486 413.552917,84.887634 
	C392.550934,73.780190 370.239746,66.270134 347.121460,60.987484 
	C325.880768,56.133862 304.312531,53.616932 282.604309,53.180542 
	C268.243347,52.891850 253.772171,53.632652 239.487869,55.181133 
	C223.876251,56.873512 208.254333,59.277130 192.940353,62.720425 
	C169.808731,67.921478 147.800247,76.427193 127.170486,88.347404 
	C104.577171,101.402214 84.877396,117.483498 71.273575,140.195679 
	C58.976307,160.726532 54.885963,182.671432 60.566593,206.024216 
	C66.944458,232.243286 83.508347,251.530243 103.959641,267.978516 
	C116.992378,278.460327 131.642609,286.261414 146.728561,293.264679 
	C152.427780,295.910370 158.366089,298.040985 164.195419,300.406403 
	C163.149460,298.668121 161.708832,297.895050 160.292831,297.079254 
	C147.525375,289.723724 134.220123,283.147705 122.124359,274.816162 
	C103.797440,262.192627 89.450043,245.787903 80.943550,224.815201 
	C73.614067,206.744431 72.560402,188.369095 78.654594,169.809097 
	C84.794189,151.110825 95.919380,135.804977 110.596397,122.719917 
	C121.491356,113.006668 133.335770,104.865700 146.115448,97.983597 
	C166.179916,87.178482 187.488770,79.856964 209.642990,74.567474 
	C232.497192,69.110863 255.685074,66.749680 279.040985,66.165520 
	C290.564240,65.877312 302.207245,66.719376 313.659607,68.145592 
	C329.250153,70.087143 344.938721,72.145775 360.160522,75.883873 
	C374.729767,79.461716 389.066101,84.503731 402.940826,90.261337 
	C419.738007,97.231682 435.523315,106.304291 450.348328,119.392410 
	C435.241302,118.321266 421.415741,117.340973 407.294891,116.339752 
	C421.769501,125.221245 435.992157,133.948135 450.524536,142.865082 
	C438.067719,156.311249 426.546509,168.747528 415.025299,181.183792 
	C415.279694,181.515961 415.534119,181.848114 415.788513,182.180283 
	C431.620728,176.107162 447.452942,170.034027 464.045929,163.669083 
	C466.659363,180.910812 469.204468,197.701675 471.749573,214.492538 
	C472.113464,214.475311 472.477356,214.458069 472.841248,214.440842 
	C473.860687,211.692245 474.880127,208.943649 475.983673,205.389969 
M692.000000,526.508179 
	C692.000000,522.078247 692.000000,517.648254 692.000000,512.792114 
	C712.012085,512.792114 731.409607,512.792114 750.654785,512.792114 
	C750.654785,501.614868 750.654785,490.883331 750.654785,480.356567 
	C718.584290,480.356567 686.860046,480.356567 655.351196,480.356567 
	C655.351196,553.092896 655.351196,625.472290 655.351196,697.637573 
	C687.760925,697.637573 719.818542,697.637573 751.616455,697.637573 
	C751.616455,686.873901 751.616455,676.475220 751.616455,665.824036 
	C731.623962,665.824036 712.014221,665.824036 692.238037,665.824036 
	C692.238037,645.162354 692.238037,624.769165 692.238037,603.932495 
	C708.535645,603.932495 724.601746,603.932495 740.724243,603.932495 
	C740.724243,592.756836 740.724243,582.027161 740.724243,570.857056 
	C724.387512,570.857056 708.321777,570.857056 692.000000,570.857056 
	C692.000000,556.111389 692.000000,541.808167 692.000000,526.508179 
M633.000000,483.665436 
	C633.815674,479.700775 631.239990,479.972412 628.596924,479.975342 
	C594.931274,480.012726 561.265625,479.997955 527.599976,480.009399 
	C526.490234,480.009766 525.380493,480.147034 524.302368,480.218384 
	C524.302368,491.292297 524.302368,502.025177 524.302368,513.202515 
	C536.338013,513.202515 548.077148,513.202515 560.248962,513.202515 
	C560.248962,575.050720 560.248962,636.449585 560.248962,697.627197 
	C572.768494,697.627197 584.836853,697.627197 597.165039,697.627197 
	C597.165039,635.974548 597.165039,574.694397 597.165039,512.965332 
	C609.166321,512.965332 620.904175,512.965332 633.000000,512.965332 
	C633.000000,503.224274 633.000000,493.928802 633.000000,483.665436 
M340.000000,413.464539 
	C340.000000,355.069458 340.000000,296.674408 340.000000,238.301666 
	C327.365356,238.301666 315.304657,238.301666 303.275787,238.301666 
	C303.275787,310.969025 303.275787,383.334381 303.275787,455.720947 
	C333.937286,455.720947 364.322144,455.720947 394.704041,455.720947 
	C394.704041,444.711273 394.704041,433.983307 394.704041,422.822571 
	C376.350464,422.822571 358.289520,422.822571 340.000000,422.822571 
	C340.000000,419.744232 340.000000,417.098724 340.000000,413.464539 
M744.000000,313.500000 
	C744.000000,288.416473 744.000000,263.332977 744.000000,238.316574 
	C731.337036,238.316574 719.274963,238.316574 707.299072,238.316574 
	C707.299072,311.004547 707.299072,383.375580 707.299072,455.683502 
	C719.662781,455.683502 731.724915,455.683502 744.000000,455.683502 
	C744.000000,408.411560 744.000000,361.455780 744.000000,313.500000 
M1047.000000,685.533997 
	C1046.576538,699.307861 1049.254028,698.142334 1059.829224,698.033447 
	C1063.301270,697.997681 1065.078491,696.661560 1065.018555,693.048462 
	C1064.941406,688.388611 1065.331543,683.690430 1064.830688,679.083801 
	C1064.640015,677.330017 1062.849609,674.819519 1061.254272,674.302734 
	C1051.948120,671.288025 1047.000854,675.030823 1047.000000,685.533997 
z"/>
<path fill="#840A2D" opacity="1.000000" stroke="none" 
	d="
M667.326294,258.835388 
	C671.555420,266.782715 673.216919,274.904755 673.068665,283.587799 
	C672.818420,298.246368 673.116028,312.913513 672.968750,327.574890 
	C672.808044,343.576477 666.115723,355.777710 651.530396,363.164764 
	C651.107422,363.378937 650.792664,363.806793 650.183716,364.354126 
	C660.396973,394.621399 670.633423,424.957336 681.108337,456.000000 
	C671.780029,456.000000 662.728455,456.000000 653.676880,456.000000 
	C642.749146,456.000000 643.110107,455.892273 639.869629,445.034241 
	C635.950806,431.903412 631.263062,419.003937 627.057190,405.956299 
	C623.594604,395.214447 620.271606,384.425598 617.065491,373.604645 
	C616.306824,371.044250 615.300537,369.776184 612.414551,369.937836 
	C608.127197,370.178009 603.816406,370.000092 599.080322,370.000092 
	C599.080322,398.720032 599.080322,427.116699 599.080322,455.754822 
	C586.575684,455.754822 574.512451,455.754822 562.224121,455.754822 
	C562.224121,383.210297 562.224121,310.824921 562.224121,238.000000 
	C579.690369,238.000000 596.971802,237.920486 614.252136,238.028549 
	C625.377502,238.098114 636.350525,239.116440 647.000366,242.887405 
	C655.546204,245.913345 661.988708,251.277924 667.326294,258.835388 
M609.500610,338.000000 
	C612.331665,337.999908 615.188843,338.249329 617.989075,337.955353 
	C628.503601,336.851501 635.418213,333.634949 635.882324,322.686829 
	C636.396790,310.551819 636.073486,298.377625 635.971680,286.221680 
	C635.912903,279.198456 631.218628,273.028900 624.240173,272.125214 
	C615.998413,271.057922 607.618408,271.058380 599.298706,270.595947 
	C599.298706,293.641327 599.298706,315.694550 599.298706,338.000000 
	C602.569763,338.000000 605.544495,338.000000 609.500610,338.000000 
z"/>
<path fill="#840A2D" opacity="1.000000" stroke="none" 
	d="
M890.000000,382.000000 
	C890.000000,393.161774 890.139038,403.825745 889.970703,414.484863 
	C889.633179,435.850281 876.607788,450.731964 855.968750,453.771423 
	C842.987488,455.683197 829.679810,455.576416 816.506592,455.929565 
	C804.210999,456.259125 791.899536,456.000000 779.298340,456.000000 
	C779.298340,383.369629 779.298340,310.994232 779.298340,238.246658 
	C780.642578,238.167953 782.076599,238.012299 783.510742,238.010941 
	C801.169312,237.994202 818.839600,237.608841 836.482178,238.140640 
	C847.812744,238.482178 859.293152,239.608353 869.528259,245.249146 
	C882.548584,252.424957 889.768616,263.689026 889.902161,278.548218 
	C890.210571,312.863007 890.000000,347.182434 890.000000,382.000000 
M825.503052,423.999969 
	C830.418945,423.664703 835.403442,423.730377 840.235046,422.902832 
	C848.038818,421.566193 852.858704,417.151398 852.903503,408.645111 
	C853.118347,367.834045 853.023071,327.021179 852.974792,286.209045 
	C852.967651,280.153381 847.953186,272.735657 842.723572,272.153351 
	C833.959045,271.177429 825.098877,271.059418 816.299072,270.581451 
	C816.299072,322.319427 816.299072,373.033173 816.299072,424.000000 
	C819.236145,424.000000 821.879761,424.000000 825.503052,423.999969 
z"/>
<path fill="#840A2D" opacity="1.000000" stroke="none" 
	d="
M416.000000,356.000000 
	C416.000000,330.502716 415.752563,305.501709 416.130737,280.510162 
	C416.267883,271.448486 418.109467,262.622833 423.554382,254.720886 
	C430.110870,245.205811 439.348328,239.962387 450.119568,238.231216 
	C460.787720,236.516663 471.818512,235.611099 482.577148,236.251221 
	C498.163147,237.178543 512.767700,241.598083 522.203125,255.722824 
	C527.165833,263.151825 528.838745,271.694733 528.885681,280.277740 
	C529.130676,325.104858 529.614685,369.945923 528.746704,414.757538 
	C528.296875,437.980865 517.925415,451.904755 491.886169,456.987549 
	C476.080750,460.072693 460.325623,459.784363 444.894867,454.973633 
	C427.917999,449.680817 417.936676,437.746063 417.145935,420.250824 
	C416.186676,399.026642 416.332397,377.752502 416.000000,356.000000 
M492.000000,350.500000 
	C492.000000,329.503571 492.073822,308.506592 491.916656,287.511322 
	C491.894318,284.526001 491.082001,281.430267 490.064545,278.590149 
	C486.835175,269.575592 479.331451,269.116913 471.201233,268.865540 
	C459.068115,268.490387 453.111206,276.360992 453.066437,287.117340 
	C452.899933,327.109863 452.630310,367.109009 453.221619,407.093506 
	C453.402863,419.351166 456.772949,423.315369 467.136749,425.574829 
	C475.291138,427.352509 488.036530,425.048187 490.103546,416.444672 
	C490.891693,413.164154 491.883789,409.815704 491.915771,406.489868 
	C492.091980,388.161346 492.000000,369.830231 492.000000,350.500000 
z"/>
<path fill="#840A2D" opacity="1.000000" stroke="none" 
	d="
M922.000000,673.000000 
	C922.000000,608.540588 922.000000,544.581177 922.000000,480.311035 
	C934.288391,480.311035 946.352234,480.311035 958.859009,480.311035 
	C958.859009,510.327057 958.859009,540.388428 958.859009,570.723511 
	C972.359314,570.723511 985.422180,570.723511 998.927246,570.723511 
	C998.927246,540.604187 998.927246,510.542725 998.927246,480.242432 
	C1011.429443,480.242432 1023.492188,480.242432 1035.777832,480.242432 
	C1035.777832,552.790588 1035.777832,625.172974 1035.777832,697.777710 
	C1023.650085,697.777710 1011.704163,697.777710 999.317200,697.777710 
	C999.317200,666.850708 999.317200,635.789612 999.317200,604.364807 
	C985.822388,604.364807 972.757263,604.364807 959.249634,604.364807 
	C959.249634,635.217468 959.249634,666.278564 959.249634,697.668945 
	C946.752991,697.668945 934.688538,697.668945 922.000000,697.668945 
	C922.000000,689.689453 922.000000,681.594727 922.000000,673.000000 
z"/>
<path fill="#840A2D" opacity="1.000000" stroke="none" 
	d="
M874.668335,488.172363 
	C886.389587,497.983978 890.352478,510.550415 890.054932,525.050110 
	C889.792297,537.847046 890.000000,550.653625 890.000000,563.726807 
	C877.631653,563.726807 865.566589,563.726807 853.000000,563.726807 
	C853.000000,551.543579 853.025452,539.432983 852.992493,527.322571 
	C852.961609,515.986206 844.371338,508.935730 833.117371,510.951752 
	C819.878662,513.323303 816.124329,517.388000 816.061523,531.229675 
	C815.885315,570.058838 815.920837,608.889587 816.048523,647.719177 
	C816.086792,659.364380 819.622803,665.015808 828.901794,667.270874 
	C841.298035,670.283630 853.124390,665.475830 853.019897,650.095947 
	C852.930420,636.931274 853.012390,623.765320 853.027832,610.599976 
	C853.028198,610.282532 853.137878,609.965149 853.256226,609.324524 
	C865.262512,609.324524 877.328613,609.324524 889.757324,609.324524 
	C889.834412,610.661926 889.987244,612.098389 889.989075,613.534973 
	C890.007019,627.700439 890.037109,641.865967 889.991638,656.031311 
	C889.914307,680.117126 877.717651,694.100647 854.845093,698.849976 
	C839.985901,701.935364 824.796204,701.821045 810.124146,697.827515 
	C791.940979,692.878296 780.291077,680.921753 780.044495,658.739990 
	C779.559998,615.154175 779.126526,571.565491 779.134460,527.978088 
	C779.136719,515.955933 780.533081,503.974121 788.924805,494.017029 
	C795.445740,486.279694 803.939026,482.093353 813.364929,480.148407 
	C831.580994,476.389771 849.752075,476.235016 867.222290,484.013611 
	C869.702820,485.118073 872.009033,486.614166 874.668335,488.172363 
z"/>
<path fill="#840A2D" opacity="1.000000" stroke="none" 
	d="
M944.713257,454.594543 
	C943.931885,455.312103 943.379395,455.924530 942.823853,455.927307 
	C931.695679,455.983368 920.567261,455.969208 908.689514,455.969208 
	C909.522339,450.628143 910.166687,445.693390 911.077454,440.808319 
	C913.660461,426.953827 916.360107,413.121155 918.999512,399.277161 
	C922.610229,380.338074 926.287781,361.411255 929.785583,342.451324 
	C932.639954,326.978760 935.208984,311.453674 938.023682,295.973541 
	C940.371887,283.059631 942.905884,270.179626 945.330872,257.279541 
	C946.259399,252.339981 947.248291,247.405380 947.948059,242.431732 
	C948.332214,239.701172 948.822510,237.896301 952.281494,237.935135 
	C966.263733,238.092056 980.248779,238.000229 994.982361,238.000229 
	C1008.667786,310.510010 1022.353333,383.020386 1036.087402,455.787537 
	C1023.373169,455.787537 1010.938354,455.787537 998.395203,455.787537 
	C995.854370,439.995880 993.328491,424.297363 990.753479,408.293091 
	C978.130615,408.293091 965.374939,408.293091 951.818909,408.293091 
	C949.546326,423.463104 947.243530,438.834290 944.713257,454.594543 
M962.999512,338.459961 
	C960.970398,351.187561 958.941284,363.915192 956.893433,376.760132 
	C966.975647,376.760132 976.399597,376.760132 985.825867,376.760132 
	C981.062134,346.564056 976.335388,316.602783 971.375427,285.163330 
	C968.425659,303.620331 965.713074,320.593048 962.999512,338.459961 
z"/>
<path fill="#AD966D" opacity="1.000000" stroke="none" 
	d="
M475.941620,205.792511 
	C474.880127,208.943649 473.860687,211.692245 472.841248,214.440842 
	C472.477356,214.458069 472.113464,214.475311 471.749573,214.492538 
	C469.204468,197.701675 466.659363,180.910812 464.045929,163.669083 
	C447.452942,170.034027 431.620728,176.107162 415.788513,182.180283 
	C415.534119,181.848114 415.279694,181.515961 415.025299,181.183792 
	C426.546509,168.747528 438.067719,156.311249 450.524536,142.865082 
	C435.992157,133.948135 421.769501,125.221245 407.294891,116.339752 
	C421.415741,117.340973 435.241302,118.321266 450.348328,119.392410 
	C435.523315,106.304291 419.738007,97.231682 402.940826,90.261337 
	C389.066101,84.503731 374.729767,79.461716 360.160522,75.883873 
	C344.938721,72.145775 329.250153,70.087143 313.659607,68.145592 
	C302.207245,66.719376 290.564240,65.877312 279.040985,66.165520 
	C255.685074,66.749680 232.497192,69.110863 209.642990,74.567474 
	C187.488770,79.856964 166.179916,87.178482 146.115448,97.983597 
	C133.335770,104.865700 121.491356,113.006668 110.596397,122.719917 
	C95.919380,135.804977 84.794189,151.110825 78.654594,169.809097 
	C72.560402,188.369095 73.614067,206.744431 80.943550,224.815201 
	C89.450043,245.787903 103.797440,262.192627 122.124359,274.816162 
	C134.220123,283.147705 147.525375,289.723724 160.292831,297.079254 
	C161.708832,297.895050 163.149460,298.668121 164.195419,300.406403 
	C158.366089,298.040985 152.427780,295.910370 146.728561,293.264679 
	C131.642609,286.261414 116.992378,278.460327 103.959641,267.978516 
	C83.508347,251.530243 66.944458,232.243286 60.566593,206.024216 
	C54.885963,182.671432 58.976307,160.726532 71.273575,140.195679 
	C84.877396,117.483498 104.577171,101.402214 127.170486,88.347404 
	C147.800247,76.427193 169.808731,67.921478 192.940353,62.720425 
	C208.254333,59.277130 223.876251,56.873512 239.487869,55.181133 
	C253.772171,53.632652 268.243347,52.891850 282.604309,53.180542 
	C304.312531,53.616932 325.880768,56.133862 347.121460,60.987484 
	C370.239746,66.270134 392.550934,73.780190 413.552917,84.887634 
	C429.163116,93.143486 443.669708,102.998184 457.192535,116.543274 
	C454.765381,99.639328 452.518677,83.992134 450.271973,68.344940 
	C450.583099,68.198006 450.894257,68.051071 451.205414,67.904137 
	C460.926086,82.171501 470.646790,96.438858 480.542847,110.963661 
	C492.470490,98.275566 504.258118,85.736397 516.045715,73.197235 
	C516.383911,73.378838 516.722107,73.560448 517.060242,73.742050 
	C511.963898,90.269966 506.867493,106.797890 501.709229,123.526543 
	C519.330383,124.959885 536.374023,126.346252 553.417725,127.732613 
	C553.472107,128.079697 553.526489,128.426788 553.580933,128.773880 
	C537.800903,134.958176 522.020935,141.142471 505.502869,147.616013 
	C515.071655,162.051895 524.454590,176.207367 533.837524,190.362839 
	C533.600586,190.702438 533.363586,191.042038 533.126587,191.381638 
	C518.370422,182.889297 503.614227,174.396973 488.436737,165.662186 
	C484.192444,179.202393 480.088043,192.296188 475.941620,205.792511 
z"/>
<path fill="#840A2D" opacity="1.000000" stroke="none" 
	d="
M692.000000,527.006531 
	C692.000000,541.808167 692.000000,556.111389 692.000000,570.857056 
	C708.321777,570.857056 724.387512,570.857056 740.724243,570.857056 
	C740.724243,582.027161 740.724243,592.756836 740.724243,603.932495 
	C724.601746,603.932495 708.535645,603.932495 692.238037,603.932495 
	C692.238037,624.769165 692.238037,645.162354 692.238037,665.824036 
	C712.014221,665.824036 731.623962,665.824036 751.616455,665.824036 
	C751.616455,676.475220 751.616455,686.873901 751.616455,697.637573 
	C719.818542,697.637573 687.760925,697.637573 655.351196,697.637573 
	C655.351196,625.472290 655.351196,553.092896 655.351196,480.356567 
	C686.860046,480.356567 718.584290,480.356567 750.654785,480.356567 
	C750.654785,490.883331 750.654785,501.614868 750.654785,512.792114 
	C731.409607,512.792114 712.012085,512.792114 692.000000,512.792114 
	C692.000000,517.648254 692.000000,522.078247 692.000000,527.006531 
z"/>
<path fill="#840A2D" opacity="1.000000" stroke="none" 
	d="
M633.000000,484.149353 
	C633.000000,493.928802 633.000000,503.224274 633.000000,512.965332 
	C620.904175,512.965332 609.166321,512.965332 597.165039,512.965332 
	C597.165039,574.694397 597.165039,635.974548 597.165039,697.627197 
	C584.836853,697.627197 572.768494,697.627197 560.248962,697.627197 
	C560.248962,636.449585 560.248962,575.050720 560.248962,513.202515 
	C548.077148,513.202515 536.338013,513.202515 524.302368,513.202515 
	C524.302368,502.025177 524.302368,491.292297 524.302368,480.218384 
	C525.380493,480.147034 526.490234,480.009766 527.599976,480.009399 
	C561.265625,479.997955 594.931274,480.012726 628.596924,479.975342 
	C631.239990,479.972412 633.815674,479.700775 633.000000,484.149353 
z"/>
<path fill="#840A2D" opacity="1.000000" stroke="none" 
	d="
M340.000000,413.958862 
	C340.000000,417.098724 340.000000,419.744232 340.000000,422.822571 
	C358.289520,422.822571 376.350464,422.822571 394.704041,422.822571 
	C394.704041,433.983307 394.704041,444.711273 394.704041,455.720947 
	C364.322144,455.720947 333.937286,455.720947 303.275787,455.720947 
	C303.275787,383.334381 303.275787,310.969025 303.275787,238.301666 
	C315.304657,238.301666 327.365356,238.301666 340.000000,238.301666 
	C340.000000,296.674408 340.000000,355.069458 340.000000,413.958862 
z"/>
<path fill="#840A2D" opacity="1.000000" stroke="none" 
	d="
M744.000000,314.000000 
	C744.000000,361.455780 744.000000,408.411560 744.000000,455.683502 
	C731.724915,455.683502 719.662781,455.683502 707.299072,455.683502 
	C707.299072,383.375580 707.299072,311.004547 707.299072,238.316574 
	C719.274963,238.316574 731.337036,238.316574 744.000000,238.316574 
	C744.000000,263.332977 744.000000,288.416473 744.000000,314.000000 
z"/>
<path fill="#AD966D" opacity="1.000000" stroke="none" 
	d="
M221.031448,332.968323 
	C236.798309,334.283875 252.565155,335.599457 268.965912,336.967926 
	C272.306427,347.877045 275.878052,359.541016 280.012054,373.041504 
	C259.677795,370.934204 240.764694,368.974182 221.027832,366.984131 
	C215.932327,366.036865 211.657349,365.134491 207.389633,364.199005 
	C199.637848,362.499817 191.890381,360.780884 184.141113,359.070190 
	C174.976608,355.720123 165.691757,352.663361 156.671387,348.962097 
	C134.377869,339.814514 113.454849,328.382050 94.956253,312.614594 
	C80.214355,300.049164 67.622246,285.809906 58.516949,268.769196 
	C52.394787,257.311462 48.022594,245.000900 47.116543,231.914917 
	C46.494862,222.936050 46.997387,213.879349 47.561188,204.752960 
	C49.347782,211.153809 50.815029,217.665176 52.984303,223.933594 
	C58.269886,239.206985 67.067055,252.331299 77.782555,264.393188 
	C96.188820,285.112122 118.941757,299.640778 143.888092,310.776581 
	C156.544601,316.426331 170.005554,320.273956 183.682953,325.255554 
	C196.519180,328.039337 208.775314,330.503815 221.031448,332.968323 
z"/>
<path fill="#840A2D" opacity="1.000000" stroke="none" 
	d="
M221.017395,332.502991 
	C208.775314,330.503815 196.519180,328.039337 184.066589,325.249939 
	C183.870148,296.145416 183.870148,267.365875 183.870148,238.293625 
	C215.641891,238.293625 247.020477,238.293625 278.699982,238.293625 
	C278.699982,248.972733 278.699982,259.698853 278.699982,270.859558 
	C259.671173,270.859558 240.613953,270.859558 221.003342,270.859558 
	C221.003342,291.536774 221.003342,311.787201 221.017395,332.502991 
z"/>
<path fill="#840A2D" opacity="1.000000" stroke="none" 
	d="
M184.078049,359.531311 
	C191.890381,360.780884 199.637848,362.499817 207.389633,364.199005 
	C211.657349,365.134491 215.932327,366.036865 220.609253,366.994934 
	C221.014465,396.490601 221.014465,425.945404 221.014465,455.699768 
	C208.693237,455.699768 196.633331,455.699768 184.014984,455.699768 
	C184.014984,423.812012 184.014984,391.902222 184.078049,359.531311 
z"/>
<path fill="#840A2D" opacity="1.000000" stroke="none" 
	d="
M1047.000000,685.067749 
	C1047.000854,675.030823 1051.948120,671.288025 1061.254272,674.302734 
	C1062.849609,674.819519 1064.640015,677.330017 1064.830688,679.083801 
	C1065.331543,683.690430 1064.941406,688.388611 1065.018555,693.048462 
	C1065.078491,696.661560 1063.301270,697.997681 1059.829224,698.033447 
	C1049.254028,698.142334 1046.576538,699.307861 1047.000000,685.067749 
z"/>
<path fill="#FFFFFF" opacity="1.000000" stroke="none" 
	d="
M609.009888,338.000000 
	C605.544495,338.000000 602.569763,338.000000 599.298706,338.000000 
	C599.298706,315.694550 599.298706,293.641327 599.298706,270.595947 
	C607.618408,271.058380 615.998413,271.057922 624.240173,272.125214 
	C631.218628,273.028900 635.912903,279.198456 635.971680,286.221680 
	C636.073486,298.377625 636.396790,310.551819 635.882324,322.686829 
	C635.418213,333.634949 628.503601,336.851501 617.989075,337.955353 
	C615.188843,338.249329 612.331665,337.999908 609.009888,338.000000 
z"/>
<path fill="#FFFFFF" opacity="1.000000" stroke="none" 
	d="
M825.013184,424.000000 
	C821.879761,424.000000 819.236145,424.000000 816.299072,424.000000 
	C816.299072,373.033173 816.299072,322.319427 816.299072,270.581451 
	C825.098877,271.059418 833.959045,271.177429 842.723572,272.153351 
	C847.953186,272.735657 852.967651,280.153381 852.974792,286.209045 
	C853.023071,327.021179 853.118347,367.834045 852.903503,408.645111 
	C852.858704,417.151398 848.038818,421.566193 840.235046,422.902832 
	C835.403442,423.730377 830.418945,423.664703 825.013184,424.000000 
z"/>
<path fill="#FFFFFF" opacity="1.000000" stroke="none" 
	d="
M492.000000,351.000000 
	C492.000000,369.830231 492.091980,388.161346 491.915771,406.489868 
	C491.883789,409.815704 490.891693,413.164154 490.103546,416.444672 
	C488.036530,425.048187 475.291138,427.352509 467.136749,425.574829 
	C456.772949,423.315369 453.402863,419.351166 453.221619,407.093506 
	C452.630310,367.109009 452.899933,327.109863 453.066437,287.117340 
	C453.111206,276.360992 459.068115,268.490387 471.201233,268.865540 
	C479.331451,269.116913 486.835175,269.575592 490.064545,278.590149 
	C491.082001,281.430267 491.894318,284.526001 491.916656,287.511322 
	C492.073822,308.506592 492.000000,329.503571 492.000000,351.000000 
z"/>
<path fill="#FFFFFF" opacity="1.000000" stroke="none" 
	d="
M963.000000,338.012878 
	C965.713074,320.593048 968.425659,303.620331 971.375427,285.163330 
	C976.335388,316.602783 981.062134,346.564056 985.825867,376.760132 
	C976.399597,376.760132 966.975647,376.760132 956.893433,376.760132 
	C958.941284,363.915192 960.970398,351.187561 963.000000,338.012878 
z"/>
</svg>