<?xml version="1.0" encoding="UTF-8"?>
<svg xmlns="http://www.w3.org/2000/svg" xmlns:xlink="http://www.w3.org/1999/xlink" width="32px" height="px" viewBox="0 0 32 32" version="1.1">
<g id="surface1">
<path style=" stroke:none;fill-rule:nonzero;fill:rgb(100%,100%,100%);fill-opacity:1;" d="M 3.605469 9.523438 L 3.769531 23.203125 L 15.65625 30.285156 L 16.226562 23.691406 C 16.226562 23.691406 22.902344 19.621094 22.414062 19.292969 C 21.925781 18.96875 3.605469 9.523438 3.605469 9.523438 Z M 3.605469 9.523438 "/>
<path style=" stroke:none;fill-rule:nonzero;fill:rgb(13.725491%,12.156863%,12.54902%);fill-opacity:1;" d="M 15.125 17.054688 L 15.527344 17.304688 C 15.667969 17.394531 15.832031 17.441406 16 17.441406 C 16.164062 17.441406 16.328125 17.394531 16.472656 17.304688 L 16.875 17.054688 L 20.96875 19.585938 L 15.503906 22.992188 C 15.242188 23.152344 15.082031 23.441406 15.082031 23.753906 L 15.097656 29.328125 L 5.226562 23.199219 Z M 4.390625 10.390625 L 13.425781 16 L 4.390625 21.609375 Z M 29.34375 15.980469 C 29.34375 15.65625 29.167969 15.359375 28.882812 15.199219 C 28.597656 15.042969 28.25 15.050781 27.976562 15.222656 L 22.664062 18.53125 L 18.574219 15.996094 L 28.945312 9.539062 C 29.207031 9.375 29.367188 9.085938 29.367188 8.777344 C 29.367188 8.464844 29.207031 8.179688 28.941406 8.015625 L 16.46875 0.292969 C 16.179688 0.113281 15.816406 0.113281 15.527344 0.292969 L 3.054688 8.039062 C 2.792969 8.203125 2.632812 8.488281 2.632812 8.800781 L 2.632812 23.199219 C 2.632812 23.511719 2.792969 23.796875 3.054688 23.960938 L 15.527344 31.707031 C 15.53125 31.707031 15.539062 31.710938 15.542969 31.714844 C 15.550781 31.71875 15.558594 31.722656 15.5625 31.726562 C 15.578125 31.734375 15.59375 31.742188 15.609375 31.75 C 15.621094 31.753906 15.636719 31.761719 15.652344 31.769531 C 15.675781 31.777344 15.699219 31.789062 15.722656 31.792969 C 15.738281 31.800781 15.75 31.804688 15.765625 31.808594 C 15.792969 31.816406 15.820312 31.820312 15.847656 31.824219 C 15.859375 31.828125 15.867188 31.832031 15.878906 31.832031 C 15.917969 31.835938 15.960938 31.839844 16 31.839844 C 16.082031 31.839844 16.160156 31.828125 16.242188 31.804688 C 16.273438 31.796875 16.304688 31.785156 16.332031 31.773438 C 16.339844 31.769531 16.351562 31.769531 16.359375 31.765625 C 16.382812 31.753906 16.40625 31.738281 16.433594 31.726562 C 16.445312 31.71875 16.457031 31.714844 16.472656 31.707031 L 16.472656 31.703125 L 16.496094 31.691406 L 28.941406 23.960938 C 29.207031 23.796875 29.367188 23.507812 29.367188 23.195312 L 29.34375 15.980469 "/>
<path style=" stroke:none;fill-rule:nonzero;fill:rgb(100%,100%,100%);fill-opacity:1;" d="M 16.875 24.246094 L 16.890625 29.335938 L 27.574219 22.703125 L 27.558594 17.59375 L 16.875 24.246094 "/>
<path style=" stroke:none;fill-rule:nonzero;fill:rgb(96.078432%,50.588238%,7.450981%);fill-opacity:1;" d="M 5.226562 8.800781 L 16 15.488281 L 26.769531 8.78125 L 16 2.109375 L 5.226562 8.800781 "/>
</g>
</svg>
