<?xml version="1.0" encoding="UTF-8"?>
<svg xmlns="http://www.w3.org/2000/svg" xmlns:xlink="http://www.w3.org/1999/xlink" width="32px" height="px" viewBox="0 0 32 32" version="1.1">
<g id="surface1">
<path style=" stroke:none;fill-rule:nonzero;fill:rgb(7.058824%,55.29412%,100%);fill-opacity:1;" d="M 28.21875 16.652344 C 30.46875 17.96875 31.980469 20.40625 31.984375 23.199219 C 31.996094 27.398438 28.582031 30.8125 24.367188 30.816406 C 20.152344 30.828125 16.726562 27.425781 16.71875 23.222656 C 16.714844 20.433594 18.21875 17.992188 20.464844 16.664062 L 22.660156 20.359375 C 22.714844 20.449219 22.683594 20.570312 22.59375 20.628906 C 21.761719 21.191406 21.21875 22.140625 21.222656 23.214844 C 21.222656 24.941406 22.628906 26.335938 24.359375 26.332031 C 26.089844 26.328125 27.488281 24.929688 27.484375 23.207031 C 27.484375 22.132812 26.933594 21.183594 26.101562 20.625 C 26.015625 20.5625 25.984375 20.445312 26.035156 20.351562 Z M 28.21875 16.652344 "/>
<path style=" stroke:none;fill-rule:nonzero;fill:rgb(54.509807%,85.490197%,40.392157%);fill-opacity:1;" d="M 11.371094 16.605469 C 10.230469 15.96875 8.945312 15.636719 7.640625 15.640625 C 3.425781 15.640625 0.0078125 19.046875 0.0078125 23.246094 C 0.0078125 27.445312 3.425781 30.855469 7.640625 30.855469 C 11.878906 30.855469 15.378906 27.269531 15.273438 23.050781 L 10.976562 23.050781 C 10.863281 23.050781 10.773438 23.148438 10.773438 23.257812 C 10.761719 24.941406 9.355469 26.367188 7.640625 26.367188 C 5.910156 26.367188 4.511719 24.96875 4.511719 23.246094 C 4.511719 21.523438 5.910156 20.125 7.640625 20.125 C 8.09375 20.125 8.527344 20.222656 8.914062 20.394531 C 9.007812 20.433594 9.121094 20.402344 9.175781 20.316406 Z M 11.371094 16.605469 "/>
<path style=" stroke:none;fill-rule:nonzero;fill:rgb(100%,16.470589%,26.666668%);fill-opacity:1;" d="M 11.984375 15.410156 C 9.738281 14.089844 8.230469 11.648438 8.230469 8.859375 C 8.230469 4.65625 11.648438 1.25 15.863281 1.25 C 20.078125 1.25 23.496094 4.65625 23.496094 8.859375 C 23.496094 11.648438 21.988281 14.089844 19.742188 15.410156 L 17.550781 11.714844 C 17.496094 11.621094 17.527344 11.503906 17.617188 11.441406 C 18.449219 10.882812 18.996094 9.933594 18.996094 8.859375 C 18.996094 7.132812 17.59375 5.738281 15.863281 5.738281 C 14.132812 5.738281 12.730469 7.132812 12.730469 8.859375 C 12.730469 9.933594 13.277344 10.882812 14.105469 11.441406 C 14.195312 11.503906 14.226562 11.621094 14.171875 11.714844 Z M 11.984375 15.410156 "/>
</g>
</svg>
