<?xml version="1.0" encoding="UTF-8"?>
<svg xmlns="http://www.w3.org/2000/svg" xmlns:xlink="http://www.w3.org/1999/xlink" width="32px" height="32px" viewBox="0 0 32 38" version="1.1">
<defs>
<linearGradient id="linear0" gradientUnits="userSpaceOnUse" x1="26.648937" y1="20.603781" x2="135.665253" y2="114.397667" gradientTransform="matrix(0.17309,0,0,0.171293,-4.612652,-3.529286)">
<stop offset="0" style="stop-color:rgb(35.294118%,62.352941%,83.137255%);stop-opacity:1;"/>
<stop offset="1" style="stop-color:rgb(18.823529%,41.176471%,59.607843%);stop-opacity:1;"/>
</linearGradient>
<linearGradient id="linear1" gradientUnits="userSpaceOnUse" x1="150.961105" y1="192.351761" x2="112.031441" y2="137.272995" gradientTransform="matrix(0.17309,0,0,0.171293,-4.612652,-3.529286)">
<stop offset="0" style="stop-color:rgb(100%,83.137255%,23.137255%);stop-opacity:1;"/>
<stop offset="1" style="stop-color:rgb(100%,90.980392%,45.098039%);stop-opacity:1;"/>
</linearGradient>
<filter id="alpha" filterUnits="objectBoundingBox" x="0%" y="0%" width="100%" height="100%">
  <feColorMatrix type="matrix" in="SourceGraphic" values="0 0 0 0 1 0 0 0 0 1 0 0 0 0 1 0 0 0 1 0"/>
</filter>
<mask id="mask0">
  <g filter="url(#alpha)">
<rect x="0" y="0" width="32" height="38" style="fill:rgb(0%,0%,0%);fill-opacity:0.443137;stroke:none;"/>
  </g>
</mask>
<radialGradient id="radial0" gradientUnits="userSpaceOnUse" cx="61.518883" cy="132.285751" fx="61.518883" fy="132.285751" r="29.036913" gradientTransform="matrix(0.00000000538171,-0.072365,0.324513,0.000000114348,-25.754092,42.964732)">
<stop offset="0" style="stop-color:rgb(72.156863%,72.156863%,72.156863%);stop-opacity:0.498039;"/>
<stop offset="1" style="stop-color:rgb(49.803922%,49.803922%,49.803922%);stop-opacity:0;"/>
</radialGradient>
<clipPath id="clip1">
  <rect x="0" y="0" width="32" height="38"/>
</clipPath>
<g id="surface5" clip-path="url(#clip1)">
<path style=" stroke:none;fill-rule:nonzero;fill:url(#radial0);" d="M 28.230469 38.511719 C 28.230469 37.351562 23.28125 36.410156 17.175781 36.410156 C 11.070312 36.410156 6.117188 37.351562 6.117188 38.511719 C 6.117188 39.671875 11.070312 40.613281 17.175781 40.613281 C 23.28125 40.613281 28.230469 39.671875 28.230469 38.511719 Z M 28.230469 38.511719 "/>
</g>
</defs>
<g id="surface1">
<path style=" stroke:none;fill-rule:nonzero;fill:url(#linear0);" d="M 16.898438 0 C 15.488281 0.0078125 14.140625 0.125 12.957031 0.332031 C 9.464844 0.933594 8.832031 2.199219 8.832031 4.535156 L 8.832031 7.617188 L 17.082031 7.617188 L 17.082031 8.644531 L 5.734375 8.644531 C 3.335938 8.644531 1.238281 10.054688 0.582031 12.742188 C -0.175781 15.824219 -0.210938 17.746094 0.582031 20.960938 C 1.167969 23.355469 2.566406 25.058594 4.964844 25.058594 L 7.800781 25.058594 L 7.800781 21.367188 C 7.800781 18.695312 10.15625 16.34375 12.957031 16.34375 L 21.195312 16.34375 C 23.488281 16.34375 25.320312 14.492188 25.320312 12.234375 L 25.320312 4.535156 C 25.320312 2.34375 23.433594 0.695312 21.195312 0.332031 C 19.777344 0.0976562 18.308594 -0.0078125 16.898438 0 Z M 12.4375 2.480469 C 13.289062 2.480469 13.984375 3.171875 13.984375 4.023438 C 13.984375 4.875 13.289062 5.5625 12.4375 5.5625 C 11.582031 5.5625 10.886719 4.875 10.886719 4.023438 C 10.886719 3.171875 11.582031 2.480469 12.4375 2.480469 Z M 12.4375 2.480469 "/>
<path style=" stroke:none;fill-rule:nonzero;fill:url(#linear1);" d="M 26.351562 8.644531 L 26.351562 12.234375 C 26.351562 15.015625 23.941406 17.359375 21.195312 17.359375 L 12.957031 17.359375 C 10.699219 17.359375 8.832031 19.253906 8.832031 21.46875 L 8.832031 29.167969 C 8.832031 31.359375 10.773438 32.648438 12.957031 33.277344 C 15.566406 34.03125 18.070312 34.167969 21.195312 33.277344 C 23.273438 32.6875 25.320312 31.503906 25.320312 29.167969 L 25.320312 26.085938 L 17.082031 26.085938 L 17.082031 25.058594 L 29.445312 25.058594 C 31.84375 25.058594 32.738281 23.421875 33.570312 20.960938 C 34.433594 18.425781 34.394531 15.992188 33.570312 12.742188 C 32.980469 10.402344 31.847656 8.644531 29.445312 8.644531 Z M 21.714844 28.140625 C 22.570312 28.140625 23.261719 28.828125 23.261719 29.679688 C 23.261719 30.53125 22.570312 31.222656 21.714844 31.222656 C 20.863281 31.222656 20.167969 30.53125 20.167969 29.679688 C 20.167969 28.828125 20.863281 28.140625 21.714844 28.140625 Z M 21.714844 28.140625 "/>
<use xlink:href="#surface5" mask="url(#mask0)"/>
</g>
</svg>
