<?xml version="1.0" encoding="UTF-8"?>
<svg xmlns="http://www.w3.org/2000/svg" xmlns:xlink="http://www.w3.org/1999/xlink" width="32px" height="32px" viewBox="0 0 32 24" version="1.1">
<defs>
<linearGradient id="linear0" gradientUnits="userSpaceOnUse" x1="0" y1="0" x2="1" y2="1" gradientTransform="matrix(31.871094,0,0,20.660156,0.0390625,0.128906)">
<stop offset="0" style="stop-color:rgb(79.607843%,80.784314%,81.568627%);stop-opacity:1;"/>
<stop offset="1" style="stop-color:rgb(51.764706%,51.372549%,54.509804%);stop-opacity:1;"/>
</linearGradient>
<linearGradient id="linear1" gradientUnits="userSpaceOnUse" x1="0" y1="0" x2="1" y2="1" gradientTransform="matrix(17.589844,0,0,17.375,13.171875,6.542969)">
<stop offset="0" style="stop-color:rgb(15.294118%,42.745098%,76.470588%);stop-opacity:1;"/>
<stop offset="1" style="stop-color:rgb(8.627451%,36.078431%,66.666667%);stop-opacity:1;"/>
</linearGradient>
</defs>
<g id="surface1">
<path style=" stroke:none;fill-rule:evenodd;fill:url(#linear0);" d="M 15.976562 20.789062 C 7.175781 20.789062 0.0390625 16.164062 0.0390625 10.457031 C 0.0390625 4.753906 7.175781 0.128906 15.976562 0.128906 C 24.777344 0.128906 31.910156 4.753906 31.910156 10.457031 C 31.910156 16.164062 24.777344 20.789062 15.976562 20.789062 Z M 18.414062 4.167969 C 11.726562 4.167969 6.300781 7.328125 6.300781 11.230469 C 6.300781 15.128906 11.726562 18.292969 18.414062 18.292969 C 25.105469 18.292969 30.042969 16.128906 30.042969 11.230469 C 30.042969 6.332031 25.105469 4.167969 18.414062 4.167969 Z M 18.414062 4.167969 "/>
<path style=" stroke:none;fill-rule:evenodd;fill:url(#linear1);" d="M 24.308594 16.128906 C 24.308594 16.128906 25.273438 16.410156 25.835938 16.683594 C 26.027344 16.78125 26.363281 16.96875 26.609375 17.21875 C 26.84375 17.464844 26.960938 17.710938 26.960938 17.710938 L 30.761719 23.914062 L 24.617188 23.917969 L 21.746094 18.695312 C 21.746094 18.695312 21.15625 17.71875 20.796875 17.433594 C 20.492188 17.195312 20.363281 17.113281 20.066406 17.113281 C 19.859375 17.113281 18.605469 17.113281 18.605469 17.113281 L 18.609375 23.914062 L 13.171875 23.914062 L 13.171875 6.542969 L 24.089844 6.542969 C 24.089844 6.542969 29.0625 6.628906 29.0625 11.207031 C 29.0625 15.789062 24.308594 16.128906 24.308594 16.128906 Z M 21.945312 10.3125 L 18.652344 10.308594 L 18.652344 13.261719 L 21.945312 13.261719 C 21.945312 13.261719 23.46875 13.257812 23.46875 11.757812 C 23.46875 10.230469 21.945312 10.3125 21.945312 10.3125 Z M 21.945312 10.3125 "/>
</g>
</svg>
