<?xml version="1.0" encoding="UTF-8"?>
<svg xmlns="http://www.w3.org/2000/svg" xmlns:xlink="http://www.w3.org/1999/xlink" width="32px" height="px" viewBox="0 0 32 32" version="1.1">
<g id="surface1">
<path style=" stroke:none;fill-rule:nonzero;fill:rgb(1.960784%,2.352941%,2.352941%);fill-opacity:1;" d="M 10.621094 1.25 C 10.472656 1.253906 10.308594 1.308594 10.121094 1.453125 C 9.667969 1.28125 9.230469 1.222656 8.835938 1.574219 C 8.230469 1.496094 8.035156 1.65625 7.882812 1.839844 C 7.75 1.839844 6.886719 1.707031 6.492188 2.289062 C 5.496094 2.171875 5.179688 2.867188 5.539062 3.511719 C 5.335938 3.820312 5.125 4.128906 5.597656 4.71875 C 5.429688 5.046875 5.535156 5.402344 5.933594 5.835938 C 5.828125 6.296875 6.03125 6.625 6.402344 6.878906 C 6.332031 7.511719 6.992188 7.878906 7.1875 8.011719 C 7.261719 8.378906 7.417969 8.726562 8.171875 8.921875 C 8.296875 9.46875 8.746094 9.566406 9.183594 9.679688 C 7.738281 10.507812 6.5 11.597656 6.507812 14.269531 L 6.296875 14.644531 C 4.636719 15.636719 3.144531 18.828125 5.476562 21.425781 C 5.628906 22.238281 5.886719 22.820312 6.113281 23.464844 C 6.453125 26.066406 8.675781 27.285156 9.261719 27.429688 C 10.121094 28.074219 11.035156 28.6875 12.269531 29.113281 C 13.4375 30.300781 14.703125 30.75 15.972656 30.75 L 16.027344 30.75 C 17.296875 30.75 18.5625 30.300781 19.730469 29.113281 C 20.964844 28.6875 21.878906 28.074219 22.738281 27.429688 C 23.324219 27.285156 25.546875 26.066406 25.886719 23.464844 C 26.113281 22.820312 26.371094 22.238281 26.523438 21.425781 C 28.855469 18.828125 27.363281 15.636719 25.703125 14.644531 L 25.492188 14.269531 C 25.5 11.597656 24.261719 10.507812 22.816406 9.679688 C 23.253906 9.566406 23.703125 9.46875 23.828125 8.921875 C 24.578125 8.726562 24.738281 8.378906 24.8125 8.011719 C 25.007812 7.878906 25.667969 7.511719 25.597656 6.878906 C 25.96875 6.625 26.171875 6.296875 26.066406 5.835938 C 26.464844 5.402344 26.566406 5.046875 26.398438 4.71875 C 26.875 4.128906 26.664062 3.820312 26.460938 3.511719 C 26.816406 2.863281 26.503906 2.171875 25.507812 2.289062 C 25.113281 1.707031 24.25 1.839844 24.117188 1.839844 C 23.964844 1.65625 23.769531 1.496094 23.164062 1.570312 C 22.769531 1.222656 22.328125 1.28125 21.875 1.453125 C 21.339844 1.035156 20.984375 1.371094 20.574219 1.496094 C 19.925781 1.289062 19.773438 1.574219 19.457031 1.691406 C 18.746094 1.542969 18.527344 1.867188 18.1875 2.207031 L 17.792969 2.199219 C 16.71875 2.820312 16.1875 4.085938 16 4.738281 C 15.808594 4.085938 15.277344 2.820312 14.207031 2.199219 L 13.8125 2.207031 C 13.46875 1.867188 13.253906 1.542969 12.542969 1.691406 C 12.222656 1.574219 12.074219 1.289062 11.421875 1.496094 C 11.15625 1.414062 10.910156 1.242188 10.621094 1.25 "/>
<path style=" stroke:none;fill-rule:nonzero;fill:rgb(38.82353%,77.254903%,30.19608%);fill-opacity:1;" d="M 8.511719 3.988281 C 11.351562 5.429688 13.007812 6.597656 13.910156 7.59375 C 13.449219 9.425781 11.027344 9.507812 10.144531 9.457031 C 10.324219 9.375 10.476562 9.273438 10.53125 9.121094 C 10.308594 8.964844 9.519531 9.105469 8.972656 8.800781 C 9.183594 8.757812 9.28125 8.714844 9.378906 8.5625 C 8.859375 8.398438 8.300781 8.257812 7.972656 7.988281 C 8.148438 7.992188 8.316406 8.027344 8.546875 7.871094 C 8.082031 7.621094 7.585938 7.425781 7.203125 7.050781 C 7.441406 7.042969 7.699219 7.046875 7.777344 6.960938 C 7.351562 6.699219 6.992188 6.410156 6.695312 6.097656 C 7.03125 6.136719 7.171875 6.101562 7.253906 6.042969 C 6.933594 5.71875 6.523438 5.445312 6.332031 5.046875 C 6.582031 5.128906 6.808594 5.164062 6.972656 5.039062 C 6.863281 4.796875 6.398438 4.652344 6.125 4.085938 C 6.390625 4.109375 6.667969 4.140625 6.722656 4.085938 C 6.601562 3.59375 6.394531 3.320312 6.1875 3.035156 C 6.75 3.027344 7.601562 3.035156 7.566406 2.988281 L 7.214844 2.640625 C 7.765625 2.492188 8.328125 2.664062 8.738281 2.789062 C 8.921875 2.644531 8.734375 2.464844 8.511719 2.28125 C 8.976562 2.34375 9.398438 2.449219 9.78125 2.59375 C 9.984375 2.414062 9.648438 2.230469 9.484375 2.050781 C 10.207031 2.183594 10.515625 2.375 10.816406 2.5625 C 11.039062 2.355469 10.828125 2.179688 10.679688 1.996094 C 11.226562 2.195312 11.507812 2.453125 11.800781 2.707031 C 11.902344 2.574219 12.054688 2.476562 11.871094 2.152344 C 12.253906 2.375 12.546875 2.632812 12.761719 2.921875 C 13 2.773438 12.902344 2.566406 12.90625 2.378906 C 13.308594 2.699219 13.5625 3.042969 13.875 3.375 C 13.9375 3.332031 13.992188 3.179688 14.039062 2.9375 C 15 3.851562 16.351562 6.160156 14.386719 7.074219 C 12.71875 5.714844 10.722656 4.726562 8.507812 3.988281 M 23.570312 3.988281 C 20.726562 5.429688 19.074219 6.597656 18.167969 7.59375 C 18.632812 9.425781 21.050781 9.507812 21.933594 9.457031 C 21.753906 9.375 21.601562 9.273438 21.550781 9.121094 C 21.773438 8.964844 22.558594 9.105469 23.109375 8.800781 C 22.898438 8.757812 22.796875 8.714844 22.699219 8.5625 C 23.21875 8.398438 23.777344 8.257812 24.105469 7.988281 C 23.929688 7.992188 23.761719 8.027344 23.53125 7.871094 C 23.996094 7.621094 24.492188 7.425781 24.878906 7.050781 C 24.636719 7.042969 24.378906 7.046875 24.304688 6.960938 C 24.730469 6.699219 25.089844 6.410156 25.386719 6.097656 C 25.050781 6.136719 24.90625 6.101562 24.824219 6.042969 C 25.148438 5.71875 25.554688 5.445312 25.75 5.046875 C 25.5 5.128906 25.269531 5.164062 25.105469 5.039062 C 25.214844 4.796875 25.683594 4.652344 25.953125 4.085938 C 25.691406 4.109375 25.410156 4.140625 25.355469 4.085938 C 25.476562 3.59375 25.6875 3.320312 25.890625 3.035156 C 25.328125 3.023438 24.476562 3.035156 24.515625 2.988281 L 24.863281 2.640625 C 24.3125 2.492188 23.75 2.660156 23.34375 2.789062 C 23.160156 2.644531 23.347656 2.464844 23.570312 2.28125 C 23.101562 2.34375 22.679688 2.449219 22.296875 2.59375 C 22.09375 2.414062 22.429688 2.230469 22.59375 2.050781 C 21.871094 2.183594 21.566406 2.375 21.261719 2.5625 C 21.042969 2.355469 21.25 2.179688 21.398438 1.996094 C 20.855469 2.195312 20.574219 2.453125 20.277344 2.707031 C 20.179688 2.574219 20.023438 2.476562 20.210938 2.152344 C 19.824219 2.375 19.53125 2.632812 19.316406 2.921875 C 19.078125 2.773438 19.175781 2.566406 19.175781 2.378906 C 18.773438 2.699219 18.515625 3.042969 18.207031 3.375 C 18.144531 3.332031 18.089844 3.179688 18.039062 2.9375 C 17.082031 3.851562 15.726562 6.15625 17.691406 7.070312 C 19.363281 5.714844 21.359375 4.726562 23.570312 3.988281 "/>
<path style=" stroke:none;fill-rule:nonzero;fill:rgb(77.254903%,9.411765%,31.37255%);fill-opacity:1;" d="M 19.476562 22.628906 C 19.488281 24.339844 17.972656 25.730469 16.089844 25.738281 C 14.210938 25.75 12.675781 24.371094 12.667969 22.664062 L 12.667969 22.628906 C 12.65625 20.921875 14.171875 19.527344 16.054688 19.519531 C 17.933594 19.511719 19.46875 20.890625 19.476562 22.597656 L 19.476562 22.628906 M 14.167969 13.792969 C 15.578125 14.703125 15.832031 16.769531 14.734375 18.402344 C 13.640625 20.039062 11.605469 20.628906 10.195312 19.714844 C 8.78125 18.804688 8.527344 16.742188 9.625 15.105469 C 10.722656 13.46875 12.757812 12.882812 14.167969 13.792969 M 17.976562 13.628906 C 16.566406 14.539062 16.3125 16.601562 17.410156 18.238281 C 18.507812 19.875 20.539062 20.460938 21.949219 19.550781 C 23.363281 18.640625 23.617188 16.578125 22.519531 14.941406 C 21.421875 13.304688 19.386719 12.71875 17.976562 13.628906 M 7.203125 15.292969 C 8.726562 14.890625 7.714844 21.5 6.476562 20.957031 C 5.113281 19.878906 4.675781 16.714844 7.203125 15.292969 M 24.808594 15.210938 C 23.285156 14.808594 24.296875 21.417969 25.535156 20.875 C 26.898438 19.796875 27.335938 16.632812 24.808594 15.210938 M 19.699219 10.277344 C 22.328125 9.839844 24.515625 11.378906 24.429688 14.1875 C 24.339844 15.261719 18.730469 10.4375 19.699219 10.277344 M 12.433594 10.195312 C 9.804688 9.757812 7.617188 11.296875 7.707031 14.105469 C 7.792969 15.179688 13.402344 10.355469 12.433594 10.195312 M 16.058594 9.539062 C 14.488281 9.5 12.980469 10.6875 12.976562 11.375 C 12.972656 12.210938 14.21875 13.070312 16.066406 13.089844 C 17.957031 13.105469 19.160156 12.40625 19.167969 11.542969 C 19.171875 10.5625 17.449219 9.523438 16.058594 9.539062 M 16.179688 26.699219 C 17.546875 26.640625 19.382812 27.132812 19.386719 27.789062 C 19.410156 28.421875 17.722656 29.859375 16.085938 29.832031 C 14.394531 29.902344 12.738281 28.464844 12.757812 27.96875 C 12.734375 27.238281 14.820312 26.667969 16.179688 26.699219 M 11.113281 22.824219 C 12.089844 23.980469 12.53125 26.011719 11.71875 26.609375 C 10.949219 27.066406 9.082031 26.878906 7.753906 25 C 6.859375 23.425781 6.976562 21.820312 7.605469 21.351562 C 8.542969 20.785156 9.996094 21.546875 11.113281 22.824219 M 20.921875 22.457031 C 19.867188 23.675781 19.28125 25.890625 20.050781 26.605469 C 20.785156 27.160156 22.757812 27.085938 24.214844 25.089844 C 25.273438 23.753906 24.921875 21.519531 24.316406 20.925781 C 23.417969 20.242188 22.128906 21.117188 20.921875 22.457031 "/>
</g>
</svg>
