<?xml version="1.0" encoding="UTF-8"?>
<svg xmlns="http://www.w3.org/2000/svg" xmlns:xlink="http://www.w3.org/1999/xlink" width="32px" height="px" viewBox="0 0 32 32" version="1.1">
<g id="surface1">
<path style=" stroke:none;fill-rule:nonzero;fill:rgb(13.333334%,19.215687%,30.588236%);fill-opacity:1;" d="M 8.46875 5.613281 C 8.46875 7.335938 7.113281 8.734375 5.441406 8.734375 C 3.773438 8.734375 2.417969 7.335938 2.417969 5.613281 C 2.417969 3.890625 3.773438 2.492188 5.441406 2.492188 C 7.113281 2.492188 8.46875 3.890625 8.46875 5.613281 Z M 8.46875 16.25 C 8.46875 17.972656 7.113281 19.371094 5.441406 19.371094 C 3.773438 19.371094 2.417969 17.972656 2.417969 16.25 C 2.417969 14.527344 3.773438 13.128906 5.441406 13.128906 C 7.113281 13.128906 8.46875 14.527344 8.46875 16.25 Z M 8.46875 26.886719 C 8.46875 28.609375 7.113281 30.007812 5.441406 30.007812 C 3.773438 30.007812 2.417969 28.609375 2.417969 26.886719 C 2.417969 25.164062 3.773438 23.765625 5.441406 23.765625 C 7.113281 23.765625 8.46875 25.164062 8.46875 26.886719 Z M 19.027344 16.25 C 19.027344 17.972656 17.671875 19.371094 16 19.371094 C 14.328125 19.371094 12.972656 17.972656 12.972656 16.25 C 12.972656 14.527344 14.328125 13.128906 16 13.128906 C 17.671875 13.128906 19.027344 14.527344 19.027344 16.25 Z M 19.027344 5.613281 C 19.027344 7.335938 17.671875 8.734375 16 8.734375 C 14.328125 8.734375 12.972656 7.335938 12.972656 5.613281 C 12.972656 3.890625 14.328125 2.492188 16 2.492188 C 17.671875 2.492188 19.027344 3.890625 19.027344 5.613281 Z M 29.582031 16.25 C 29.582031 17.972656 28.226562 19.371094 26.558594 19.371094 C 24.886719 19.371094 23.53125 17.972656 23.53125 16.25 C 23.53125 14.527344 24.886719 13.128906 26.558594 13.128906 C 28.226562 13.128906 29.582031 14.527344 29.582031 16.25 Z M 29.582031 5.613281 C 29.582031 7.335938 28.226562 8.734375 26.558594 8.734375 C 24.886719 8.734375 23.53125 7.335938 23.53125 5.613281 C 23.53125 3.890625 24.886719 2.492188 26.558594 2.492188 C 28.226562 2.492188 29.582031 3.890625 29.582031 5.613281 Z M 29.582031 26.886719 C 29.582031 28.609375 28.226562 30.007812 26.558594 30.007812 C 24.886719 30.007812 23.53125 28.609375 23.53125 26.886719 C 23.53125 25.164062 24.886719 23.765625 26.558594 23.765625 C 28.226562 23.765625 29.582031 25.164062 29.582031 26.886719 Z M 19.027344 26.886719 C 19.027344 28.609375 17.671875 30.007812 16 30.007812 C 14.328125 30.007812 12.972656 28.609375 12.972656 26.886719 C 12.972656 25.164062 14.328125 23.765625 16 23.765625 C 17.671875 23.765625 19.027344 25.164062 19.027344 26.886719 Z M 19.027344 26.886719 "/>
</g>
</svg>
