<?xml version="1.0" encoding="UTF-8"?>
<svg xmlns="http://www.w3.org/2000/svg" xmlns:xlink="http://www.w3.org/1999/xlink" width="32px" height="px" viewBox="0 0 32 32" version="1.1">
<g id="surface1">
<path style=" stroke:none;fill-rule:nonzero;fill:rgb(45.882353%,66.666669%,85.882354%);fill-opacity:1;" d="M 17.851562 9.699219 C 17.476562 9.550781 16.875 9.449219 16.125 9.425781 C 15.074219 9.398438 13.875 9.523438 13.824219 9.550781 L 13.824219 14.550781 C 17.148438 14.699219 17.699219 14.125 17.699219 14.125 C 20.601562 12.648438 18.773438 10.074219 17.851562 9.699219 Z M 17.851562 9.699219 "/>
<path style=" stroke:none;fill-rule:nonzero;fill:rgb(45.882353%,66.666669%,85.882354%);fill-opacity:1;" d="M 16 0 C 7.148438 0 0 7.148438 0 16 C 0 24.851562 7.148438 32 16 32 C 24.851562 32 32 24.851562 32 16 C 32 7.148438 24.824219 0 16 0 Z M 23.148438 22.449219 L 20.5 22.449219 L 16.101562 15.875 L 13.851562 15.875 L 13.851562 21 L 16.101562 21 L 16.101562 22.449219 L 10.375 22.449219 L 10.375 21.023438 L 12.273438 21 L 12.25 9.523438 C 12.050781 9.476562 10.375 9.324219 10.375 9.324219 L 10.375 8 C 10.625 8.25 12.351562 8.300781 12.351562 8.300781 C 12.75 8.324219 13.324219 8.351562 13.648438 8.273438 C 15.976562 7.851562 17.75 8.175781 17.75 8.175781 C 21.25 8.976562 21.300781 12.125 20.324219 13.824219 C 19.449219 15.273438 17.75 15.625 17.75 15.625 L 21.351562 21.074219 L 23.148438 21.050781 Z M 23.148438 22.449219 "/>
<path style="fill-rule:nonzero;fill:rgb(100%,100%,100%);fill-opacity:1;stroke-width:0.788;stroke-linecap:butt;stroke-linejoin:miter;stroke:rgb(100%,100%,100%);stroke-opacity:1;stroke-miterlimit:4;" d="M 41.59375 87.078125 L 41.59375 84.34375 L 43.421875 84.203125 C 44.65625 84.125 45.921875 84.0625 47.171875 84.0625 L 49.09375 84.0625 L 49.09375 38 L 48.15625 37.875 C 47.640625 37.796875 45.953125 37.625 44.40625 37.46875 L 41.59375 37.203125 L 41.59375 34.6875 C 41.59375 32.359375 41.625 32.203125 41.984375 32.390625 C 43.5625 33.234375 52.6875 33.46875 57.8125 32.78125 C 62.015625 32.21875 69.3125 32.359375 71.84375 33.03125 C 77.328125 34.515625 80.953125 37.6875 82.671875 42.515625 C 83.390625 44.53125 83.484375 48.359375 82.890625 50.734375 C 81.984375 54.3125 80.5 56.78125 78.03125 58.828125 C 76.546875 60.0625 73.171875 61.859375 71.875 62.125 C 71.484375 62.203125 71.109375 62.34375 71.046875 62.453125 C 70.984375 62.546875 74.171875 67.515625 78.125 73.5 L 85.3125 84.375 L 88.9375 84.3125 L 92.578125 84.234375 L 92.578125 89.796875 L 87.328125 89.796875 L 82.09375 89.78125 L 73.265625 76.546875 L 64.453125 63.3125 L 55.28125 63.3125 L 55.28125 84.0625 L 64.328125 84.0625 L 64.328125 89.796875 L 41.59375 89.796875 Z M 66.75 57.90625 C 70.234375 57.359375 74.015625 55.140625 75.71875 52.640625 C 78.234375 48.984375 77.265625 43.65625 73.4375 40.09375 C 72.078125 38.84375 71.234375 38.46875 68.640625 38 C 66.515625 37.609375 59.984375 37.546875 56.9375 37.875 L 55.390625 38.046875 L 55.328125 48.125 L 55.265625 58.21875 L 56 58.3125 C 57.359375 58.515625 64.65625 58.25 66.75 57.90625 Z M 66.75 57.90625 " transform="matrix(0.25,0,0,0.25,0,0)"/>
</g>
</svg>
