<?xml version="1.0" encoding="UTF-8"?>
<svg xmlns="http://www.w3.org/2000/svg" xmlns:xlink="http://www.w3.org/1999/xlink" width="32px" height="32px" viewBox="0 0 32 32" version="1.1">
<g id="surface1">
<path style=" stroke:none;fill-rule:nonzero;fill:rgb(36.470589%,0%,14.509805%);fill-opacity:1;" d="M 5.964844 6.59375 L 24.625 6.59375 L 24.625 25.402344 L 5.964844 25.402344 Z M 5.964844 6.59375 "/>
<path style=" stroke:none;fill-rule:nonzero;fill:rgb(100%,100%,100%);fill-opacity:1;" d="M 22.144531 14.082031 L 20.679688 14.082031 L 20.644531 14.152344 L 19.640625 16.246094 L 18.632812 14.152344 L 18.597656 14.082031 L 17.050781 14.082031 L 17.050781 15.050781 L 17.40625 15.050781 L 17.40625 18.042969 L 17.03125 18.042969 L 17.03125 19.011719 L 18.789062 19.011719 L 18.789062 18.042969 L 18.402344 18.042969 L 18.402344 15.917969 L 19.527344 18.234375 L 19.640625 18.472656 L 19.753906 18.234375 L 20.890625 15.914062 L 20.890625 18.042969 L 20.515625 18.042969 L 20.515625 19.011719 L 22.273438 19.011719 L 22.273438 18.042969 L 21.886719 18.042969 L 21.886719 15.050781 L 22.273438 15.050781 L 22.273438 14.082031 Z M 22.144531 14.082031 "/>
<path style=" stroke:none;fill-rule:nonzero;fill:rgb(100%,100%,100%);fill-opacity:1;" d="M 13.410156 18.042969 L 13.011719 18.042969 L 11.707031 15.035156 L 11.957031 15.035156 L 11.957031 14.0625 L 9.867188 14.0625 L 9.867188 15.03125 L 10.15625 15.03125 L 8.855469 18.039062 L 8.3125 18.039062 L 8.3125 19.007812 L 10.210938 19.007812 L 10.210938 18.039062 L 9.933594 18.039062 L 10.152344 17.539062 L 11.71875 17.539062 L 11.933594 18.039062 L 11.640625 18.039062 L 11.640625 19.007812 L 13.539062 19.007812 L 13.539062 18.039062 Z M 11.296875 16.574219 L 10.570312 16.574219 L 10.933594 15.730469 Z M 11.296875 16.574219 "/>
<path style=" stroke:none;fill-rule:nonzero;fill:rgb(100%,100%,100%);fill-opacity:1;" d="M 20.554688 10.320312 L 9.855469 10.320312 L 9.855469 13.429688 L 11.96875 13.429688 L 11.96875 12.238281 L 14.21875 12.238281 L 14.21875 19.667969 L 13.027344 19.667969 L 13.027344 21.78125 L 17.527344 21.78125 L 17.527344 19.667969 L 16.335938 19.667969 L 16.335938 12.238281 L 18.574219 12.238281 L 18.574219 13.417969 L 20.699219 13.417969 L 20.699219 10.320312 Z M 20.554688 10.320312 "/>
<path style=" stroke:none;fill-rule:nonzero;fill:rgb(69.411767%,70.19608%,71.372551%);fill-opacity:1;" d="M 16.648438 20.535156 L 17.09375 20.074219 L 17.09375 21.335938 L 16.648438 20.90625 Z M 16.648438 20.535156 "/>
<path style=" stroke:none;fill-rule:nonzero;fill:rgb(69.411767%,70.19608%,71.372551%);fill-opacity:1;" d="M 15.90625 20.109375 L 15.457031 20.546875 L 15.457031 11.363281 L 15.90625 11.804688 Z M 15.90625 20.109375 "/>
<path style=" stroke:none;fill-rule:nonzero;fill:rgb(69.411767%,70.19608%,71.372551%);fill-opacity:1;" d="M 10.746094 11.199219 L 10.289062 10.753906 L 20.042969 10.753906 L 19.464844 11.199219 Z M 10.746094 11.199219 "/>
<path style=" stroke:none;fill-rule:nonzero;fill:rgb(69.411767%,70.19608%,71.372551%);fill-opacity:1;" d="M 20.28125 13.007812 L 19.832031 12.582031 L 19.832031 11.449219 L 20.28125 10.988281 Z M 20.28125 13.007812 "/>
<path style=" stroke:none;fill-rule:nonzero;fill:rgb(36.470589%,0%,14.509805%);fill-opacity:1;" d="M 25.289062 25.03125 C 25.289062 24.824219 25.457031 24.65625 25.660156 24.65625 C 25.867188 24.65625 26.035156 24.824219 26.035156 25.03125 C 26.035156 25.238281 25.867188 25.40625 25.660156 25.40625 C 25.457031 25.40625 25.289062 25.238281 25.289062 25.03125 Z M 25.945312 25.03125 C 25.933594 24.875 25.800781 24.757812 25.644531 24.765625 C 25.488281 24.777344 25.371094 24.914062 25.378906 25.070312 C 25.390625 25.21875 25.511719 25.332031 25.660156 25.332031 C 25.820312 25.332031 25.945312 25.199219 25.945312 25.042969 C 25.945312 25.039062 25.945312 25.035156 25.945312 25.03125 Z M 25.519531 24.816406 L 25.675781 24.816406 C 25.777344 24.816406 25.832031 24.851562 25.832031 24.941406 C 25.839844 25 25.796875 25.050781 25.738281 25.054688 C 25.734375 25.054688 25.726562 25.054688 25.722656 25.054688 L 25.835938 25.242188 L 25.753906 25.242188 L 25.644531 25.054688 L 25.597656 25.054688 L 25.597656 25.238281 L 25.515625 25.238281 Z M 25.597656 25 L 25.664062 25 C 25.710938 25 25.753906 24.992188 25.753906 24.9375 C 25.753906 24.878906 25.707031 24.878906 25.667969 24.878906 L 25.597656 24.878906 Z M 25.597656 25 "/>
</g>
</svg>
