<?xml version="1.0" encoding="UTF-8"?>
<svg xmlns="http://www.w3.org/2000/svg" xmlns:xlink="http://www.w3.org/1999/xlink" width="32px" height="px" viewBox="0 0 32 32" version="1.1">
<g id="surface1">
<path style=" stroke:none;fill-rule:nonzero;fill:rgb(0%,0%,0%);fill-opacity:1;" d="M 16.101562 30.734375 L 28.003906 23.859375 L 23.441406 21.222656 L 18.777344 23.914062 C 18.699219 23.960938 18.601562 23.960938 18.519531 23.914062 C 18.441406 23.867188 18.390625 23.78125 18.390625 23.691406 L 18.390625 17.289062 C 18.390625 17.101562 18.488281 16.933594 18.652344 16.839844 L 24.191406 13.636719 C 24.273438 13.589844 24.371094 13.59375 24.453125 13.640625 C 24.53125 13.683594 24.582031 13.769531 24.582031 13.863281 L 24.582031 19.246094 L 29.148438 21.882812 L 29.148438 8.140625 L 16.101562 15.671875 Z M 16.101562 30.734375 "/>
<path style=" stroke:none;fill-rule:nonzero;fill:rgb(30.19608%,30.19608%,30.19608%);fill-opacity:1;" d="M 13.433594 23.917969 L 8.769531 21.222656 L 4.203125 23.859375 L 16.101562 30.734375 L 16.101562 15.671875 L 3.0625 8.140625 L 3.0625 21.882812 L 7.625 19.246094 L 7.625 13.863281 C 7.628906 13.769531 7.679688 13.683594 7.757812 13.640625 C 7.835938 13.59375 7.9375 13.59375 8.019531 13.636719 L 13.5625 16.839844 C 13.722656 16.933594 13.824219 17.105469 13.824219 17.292969 L 13.824219 23.691406 C 13.820312 23.785156 13.773438 23.867188 13.691406 23.917969 C 13.613281 23.964844 13.515625 23.964844 13.433594 23.917969 "/>
<path style=" stroke:none;fill-rule:nonzero;fill:rgb(50.196081%,50.196081%,50.196081%);fill-opacity:1;" d="M 17.246094 1.265625 L 17.246094 6.539062 L 21.910156 9.230469 C 21.992188 9.277344 22.039062 9.363281 22.039062 9.457031 C 22.039062 9.550781 21.992188 9.636719 21.910156 9.683594 L 16.367188 12.886719 C 16.207031 12.976562 16.007812 12.976562 15.84375 12.886719 L 10.300781 9.683594 C 10.222656 9.636719 10.171875 9.550781 10.171875 9.457031 C 10.171875 9.363281 10.222656 9.277344 10.300781 9.230469 L 14.964844 6.539062 L 14.964844 1.265625 L 3.0625 8.140625 L 16.101562 15.671875 L 29.148438 8.140625 Z M 17.246094 1.265625 "/>
</g>
</svg>
